<svg xmlns="http://www.w3.org/2000/svg" width="720" height="480" viewBox="0 0 720 480"><rect x="0" y="0" width="720" height="480" fill="#0a0a0b"/><g transform="translate(40,40)"><rect x="0" y="0" width="640" height="400" fill="#1d1c1b"/><line x1="0" y1="0.0" x2="640" y2="0.0" stroke="#262523" stroke-width="1"/><line x1="0" y1="0.0" x2="0" y2="20.0" stroke="#262523" stroke-width="1"/><line x1="120" y1="0.0" x2="120" y2="20.0" stroke="#262523" stroke-width="1"/><line x1="240" y1="0.0" x2="240" y2="20.0" stroke="#262523" stroke-width="1"/><line x1="360" y1="0.0" x2="360" y2="20.0" stroke="#262523" stroke-width="1"/><line x1="480" y1="0.0" x2="480" y2="20.0" stroke="#262523" stroke-width="1"/><line x1="600" y1="0.0" x2="600" y2="20.0" stroke="#262523" stroke-width="1"/><line x1="0" y1="20.0" x2="640" y2="20.0" stroke="#262523" stroke-width="1"/><line x1="60" y1="20.0" x2="60" y2="40.0" stroke="#262523" stroke-width="1"/><line x1="180" y1="20.0" x2="180" y2="40.0" stroke="#262523" stroke-width="1"/><line x1="300" y1="20.0" x2="300" y2="40.0" stroke="#262523" stroke-width="1"/><line x1="420" y1="20.0" x2="420" y2="40.0" stroke="#262523" stroke-width="1"/><line x1="540" y1="20.0" x2="540" y2="40.0" stroke="#262523" stroke-width="1"/><line x1="0" y1="40.0" x2="640" y2="40.0" stroke="#262523" stroke-width="1"/><line x1="0" y1="40.0" x2="0" y2="60.0" stroke="#262523" stroke-width="1"/><line x1="120" y1="40.0" x2="120" y2="60.0" stroke="#262523" stroke-width="1"/><line x1="240" y1="40.0" x2="240" y2="60.0" stroke="#262523" stroke-width="1"/><line x1="360" y1="40.0" x2="360" y2="60.0" stroke="#262523" stroke-width="1"/><line x1="480" y1="40.0" x2="480" y2="60.0" stroke="#262523" stroke-width="1"/><line x1="600" y1="40.0" x2="600" y2="60.0" stroke="#262523" stroke-width="1"/><line x1="0" y1="60.0" x2="640" y2="60.0" stroke="#262523" stroke-width="1"/><line x1="60" y1="60.0" x2="60" y2="80.0" stroke="#262523" stroke-width="1"/><line x1="180" y1="60.0" x2="180" y2="80.0" stroke="#262523" stroke-width="1"/><line x1="300" y1="60.0" x2="300" y2="80.0" stroke="#262523" stroke-width="1"/><line x1="420" y1="60.0" x2="420" y2="80.0" stroke="#262523" stroke-width="1"/><line x1="540" y1="60.0" x2="540" y2="80.0" stroke="#262523" stroke-width="1"/><line x1="0" y1="80.0" x2="640" y2="80.0" stroke="#262523" stroke-width="1"/><line x1="0" y1="80.0" x2="0" y2="100.0" stroke="#262523" stroke-width="1"/><line x1="120" y1="80.0" x2="120" y2="100.0" stroke="#262523" stroke-width="1"/><line x1="240" y1="80.0" x2="240" y2="100.0" stroke="#262523" stroke-width="1"/><line x1="360" y1="80.0" x2="360" y2="100.0" stroke="#262523" stroke-width="1"/><line x1="480" y1="80.0" x2="480" y2="100.0" stroke="#262523" stroke-width="1"/><line x1="600" y1="80.0" x2="600" y2="100.0" stroke="#262523" stroke-width="1"/><line x1="0" y1="100.0" x2="640" y2="100.0" stroke="#262523" stroke-width="1"/><line x1="60" y1="100.0" x2="60" y2="120.0" stroke="#262523" stroke-width="1"/><line x1="180" y1="100.0" x2="180" y2="120.0" stroke="#262523" stroke-width="1"/><line x1="300" y1="100.0" x2="300" y2="120.0" stroke="#262523" stroke-width="1"/><line x1="420" y1="100.0" x2="420" y2="120.0" stroke="#262523" stroke-width="1"/><line x1="540" y1="100.0" x2="540" y2="120.0" stroke="#262523" stroke-width="1"/><line x1="0" y1="120.0" x2="640" y2="120.0" stroke="#262523" stroke-width="1"/><line x1="0" y1="120.0" x2="0" y2="140.0" stroke="#262523" stroke-width="1"/><line x1="120" y1="120.0" x2="120" y2="140.0" stroke="#262523" stroke-width="1"/><line x1="240" y1="120.0" x2="240" y2="140.0" stroke="#262523" stroke-width="1"/><line x1="360" y1="120.0" x2="360" y2="140.0" stroke="#262523" stroke-width="1"/><line x1="480" y1="120.0" x2="480" y2="140.0" stroke="#262523" stroke-width="1"/><line x1="600" y1="120.0" x2="600" y2="140.0" stroke="#262523" stroke-width="1"/><line x1="0" y1="140.0" x2="640" y2="140.0" stroke="#262523" stroke-width="1"/><line x1="60" y1="140.0" x2="60" y2="160.0" stroke="#262523" stroke-width="1"/><line x1="180" y1="140.0" x2="180" y2="160.0" stroke="#262523" stroke-width="1"/><line x1="300" y1="140.0" x2="300" y2="160.0" stroke="#262523" stroke-width="1"/><line x1="420" y1="140.0" x2="420" y2="160.0" stroke="#262523" stroke-width="1"/><line x1="540" y1="140.0" x2="540" y2="160.0" stroke="#262523" stroke-width="1"/><line x1="0" y1="160.0" x2="640" y2="160.0" stroke="#262523" stroke-width="1"/><line x1="0" y1="160.0" x2="0" y2="180.0" stroke="#262523" stroke-width="1"/><line x1="120" y1="160.0" x2="120" y2="180.0" stroke="#262523" stroke-width="1"/><line x1="240" y1="160.0" x2="240" y2="180.0" stroke="#262523" stroke-width="1"/><line x1="360" y1="160.0" x2="360" y2="180.0" stroke="#262523" stroke-width="1"/><line x1="480" y1="160.0" x2="480" y2="180.0" stroke="#262523" stroke-width="1"/><line x1="600" y1="160.0" x2="600" y2="180.0" stroke="#262523" stroke-width="1"/><line x1="0" y1="180.0" x2="640" y2="180.0" stroke="#262523" stroke-width="1"/><line x1="60" y1="180.0" x2="60" y2="200.0" stroke="#262523" stroke-width="1"/><line x1="180" y1="180.0" x2="180" y2="200.0" stroke="#262523" stroke-width="1"/><line x1="300" y1="180.0" x2="300" y2="200.0" stroke="#262523" stroke-width="1"/><line x1="420" y1="180.0" x2="420" y2="200.0" stroke="#262523" stroke-width="1"/><line x1="540" y1="180.0" x2="540" y2="200.0" stroke="#262523" stroke-width="1"/><line x1="0" y1="200.0" x2="640" y2="200.0" stroke="#262523" stroke-width="1"/><line x1="0" y1="200.0" x2="0" y2="220.0" stroke="#262523" stroke-width="1"/><line x1="120" y1="200.0" x2="120" y2="220.0" stroke="#262523" stroke-width="1"/><line x1="240" y1="200.0" x2="240" y2="220.0" stroke="#262523" stroke-width="1"/><line x1="360" y1="200.0" x2="360" y2="220.0" stroke="#262523" stroke-width="1"/><line x1="480" y1="200.0" x2="480" y2="220.0" stroke="#262523" stroke-width="1"/><line x1="600" y1="200.0" x2="600" y2="220.0" stroke="#262523" stroke-width="1"/><line x1="0" y1="220.0" x2="640" y2="220.0" stroke="#262523" stroke-width="1"/><line x1="60" y1="220.0" x2="60" y2="240.0" stroke="#262523" stroke-width="1"/><line x1="180" y1="220.0" x2="180" y2="240.0" stroke="#262523" stroke-width="1"/><line x1="300" y1="220.0" x2="300" y2="240.0" stroke="#262523" stroke-width="1"/><line x1="420" y1="220.0" x2="420" y2="240.0" stroke="#262523" stroke-width="1"/><line x1="540" y1="220.0" x2="540" y2="240.0" stroke="#262523" stroke-width="1"/><line x1="0" y1="240.0" x2="640" y2="240.0" stroke="#262523" stroke-width="1"/><line x1="0" y1="240.0" x2="0" y2="260.0" stroke="#262523" stroke-width="1"/><line x1="120" y1="240.0" x2="120" y2="260.0" stroke="#262523" stroke-width="1"/><line x1="240" y1="240.0" x2="240" y2="260.0" stroke="#262523" stroke-width="1"/><line x1="360" y1="240.0" x2="360" y2="260.0" stroke="#262523" stroke-width="1"/><line x1="480" y1="240.0" x2="480" y2="260.0" stroke="#262523" stroke-width="1"/><line x1="600" y1="240.0" x2="600" y2="260.0" stroke="#262523" stroke-width="1"/><line x1="0" y1="260.0" x2="640" y2="260.0" stroke="#262523" stroke-width="1"/><line x1="60" y1="260.0" x2="60" y2="280.0" stroke="#262523" stroke-width="1"/><line x1="180" y1="260.0" x2="180" y2="280.0" stroke="#262523" stroke-width="1"/><line x1="300" y1="260.0" x2="300" y2="280.0" stroke="#262523" stroke-width="1"/><line x1="420" y1="260.0" x2="420" y2="280.0" stroke="#262523" stroke-width="1"/><line x1="540" y1="260.0" x2="540" y2="280.0" stroke="#262523" stroke-width="1"/><line x1="0" y1="280.0" x2="640" y2="280.0" stroke="#262523" stroke-width="1"/><line x1="0" y1="280.0" x2="0" y2="300.0" stroke="#262523" stroke-width="1"/><line x1="120" y1="280.0" x2="120" y2="300.0" stroke="#262523" stroke-width="1"/><line x1="240" y1="280.0" x2="240" y2="300.0" stroke="#262523" stroke-width="1"/><line x1="360" y1="280.0" x2="360" y2="300.0" stroke="#262523" stroke-width="1"/><line x1="480" y1="280.0" x2="480" y2="300.0" stroke="#262523" stroke-width="1"/><line x1="600" y1="280.0" x2="600" y2="300.0" stroke="#262523" stroke-width="1"/><line x1="0" y1="300.0" x2="640" y2="300.0" stroke="#262523" stroke-width="1"/><line x1="60" y1="300.0" x2="60" y2="320.0" stroke="#262523" stroke-width="1"/><line x1="180" y1="300.0" x2="180" y2="320.0" stroke="#262523" stroke-width="1"/><line x1="300" y1="300.0" x2="300" y2="320.0" stroke="#262523" stroke-width="1"/><line x1="420" y1="300.0" x2="420" y2="320.0" stroke="#262523" stroke-width="1"/><line x1="540" y1="300.0" x2="540" y2="320.0" stroke="#262523" stroke-width="1"/><line x1="0" y1="320.0" x2="640" y2="320.0" stroke="#262523" stroke-width="1"/><line x1="0" y1="320.0" x2="0" y2="340.0" stroke="#262523" stroke-width="1"/><line x1="120" y1="320.0" x2="120" y2="340.0" stroke="#262523" stroke-width="1"/><line x1="240" y1="320.0" x2="240" y2="340.0" stroke="#262523" stroke-width="1"/><line x1="360" y1="320.0" x2="360" y2="340.0" stroke="#262523" stroke-width="1"/><line x1="480" y1="320.0" x2="480" y2="340.0" stroke="#262523" stroke-width="1"/><line x1="600" y1="320.0" x2="600" y2="340.0" stroke="#262523" stroke-width="1"/><line x1="0" y1="340.0" x2="640" y2="340.0" stroke="#262523" stroke-width="1"/><line x1="60" y1="340.0" x2="60" y2="360.0" stroke="#262523" stroke-width="1"/><line x1="180" y1="340.0" x2="180" y2="360.0" stroke="#262523" stroke-width="1"/><line x1="300" y1="340.0" x2="300" y2="360.0" stroke="#262523" stroke-width="1"/><line x1="420" y1="340.0" x2="420" y2="360.0" stroke="#262523" stroke-width="1"/><line x1="540" y1="340.0" x2="540" y2="360.0" stroke="#262523" stroke-width="1"/><line x1="0" y1="360.0" x2="640" y2="360.0" stroke="#262523" stroke-width="1"/><line x1="0" y1="360.0" x2="0" y2="380.0" stroke="#262523" stroke-width="1"/><line x1="120" y1="360.0" x2="120" y2="380.0" stroke="#262523" stroke-width="1"/><line x1="240" y1="360.0" x2="240" y2="380.0" stroke="#262523" stroke-width="1"/><line x1="360" y1="360.0" x2="360" y2="380.0" stroke="#262523" stroke-width="1"/><line x1="480" y1="360.0" x2="480" y2="380.0" stroke="#262523" stroke-width="1"/><line x1="600" y1="360.0" x2="600" y2="380.0" stroke="#262523" stroke-width="1"/><line x1="0" y1="380.0" x2="640" y2="380.0" stroke="#262523" stroke-width="1"/><line x1="60" y1="380.0" x2="60" y2="400.0" stroke="#262523" stroke-width="1"/><line x1="180" y1="380.0" x2="180" y2="400.0" stroke="#262523" stroke-width="1"/><line x1="300" y1="380.0" x2="300" y2="400.0" stroke="#262523" stroke-width="1"/><line x1="420" y1="380.0" x2="420" y2="400.0" stroke="#262523" stroke-width="1"/><line x1="540" y1="380.0" x2="540" y2="400.0" stroke="#262523" stroke-width="1"/><rect x="-7.0" y="-7.0" width="654" height="414" fill="none" stroke="#2e2e31" stroke-width="14"/><rect x="0" y="0" width="640" height="400" fill="none" stroke="#4a4a4d" stroke-width="2"/><rect x="-15" y="160" width="17" height="80" fill="#1d1c1b"/><rect x="-15" y="160" width="17" height="80" fill="none" stroke="#8a8a85" stroke-width="1" stroke-dasharray="3 4"/><text x="-18" y="154" fill="#bdbdb8" font-family="Patrick Hand, Comic Sans MS, sans-serif" font-size="15" text-anchor="start">→ Kitchen</text><rect x="400" y="398" width="80" height="17" fill="#1d1c1b"/><rect x="400" y="398" width="80" height="17" fill="none" stroke="#8a8a85" stroke-width="1" stroke-dasharray="3 4"/><text x="440.0" y="432" fill="#bdbdb8" font-family="Patrick Hand, Comic Sans MS, sans-serif" font-size="15" text-anchor="middle">→ Town</text><g transform="translate(320.0,180.0) rotate(0) translate(-80.0,-60.0)"><rect x="0.0" y="0.0" width="160.0" height="120.0" rx="8.0" fill="#26262a" stroke="#5a5a5d" stroke-width="2.00"/><rect x="12.8" y="12.0" width="134.4" height="96.0" rx="6.0" fill="none" stroke="#5a5a5d" stroke-width="2.00"/><rect x="32.0" y="36.0" width="96.0" height="48.0" rx="4.0" fill="none" stroke="#3a3a3d" stroke-width="2.00"/></g><g transform="translate(160.0,100.0) rotate(0) translate(-40.0,-20.0)"><rect x="0.0" y="8.0" width="80.0" height="24.0" rx="3.0" fill="#5a5a5d" stroke="#8a8a85" stroke-width="2.00"/><line x1="16.0" y1="10.0" x2="16.0" y2="30.0" stroke="#3a3a3d" stroke-width="1.00" stroke-linecap="round"/><line x1="28.0" y1="10.0" x2="28.0" y2="30.0" stroke="#3a3a3d" stroke-width="1.00" stroke-linecap="round"/><line x1="40.0" y1="10.0" x2="40.0" y2="30.0" stroke="#3a3a3d" stroke-width="1.00" stroke-linecap="round"/><line x1="52.0" y1="10.0" x2="52.0" y2="30.0" stroke="#3a3a3d" stroke-width="1.00" stroke-linecap="round"/><line x1="64.0" y1="10.0" x2="64.0" y2="30.0" stroke="#3a3a3d" stroke-width="1.00" stroke-linecap="round"/></g><g transform="translate(320.0,360.0) rotate(180) translate(-80.0,-40.0)"><rect x="0.0" y="0.0" width="160.0" height="30.4" rx="6.0" fill="#3a3a3d" stroke="#6a6a66" stroke-width="2.00"/><rect x="0.0" y="16.0" width="19.2" height="64.0" rx="5.0" fill="#3a3a3d" stroke="#6a6a66" stroke-width="2.00"/><rect x="140.8" y="16.0" width="19.2" height="64.0" rx="5.0" fill="#3a3a3d" stroke="#6a6a66" stroke-width="2.00"/><rect x="19.2" y="28.0" width="60.8" height="48.0" rx="4.0" fill="#5a5a5d" stroke="#6a6a66" stroke-width="2.00"/><rect x="80.0" y="28.0" width="60.8" height="48.0" rx="4.0" fill="#5a5a5d" stroke="#6a6a66" stroke-width="2.00"/></g><g transform="translate(300.0,20.0) rotate(0) translate(-100.0,-20.0)"><rect x="0.0" y="10.0" width="200.0" height="20.0" rx="2.0" fill="#0b0b0c" stroke="#bdbdb8" stroke-width="3.00"/><rect x="8.0" y="14.0" width="184.0" height="12.0" rx="0.0" fill="#26262a" stroke="#3a3a3d" stroke-width="1.00"/><circle cx="190.0" cy="20.0" r="1.6" fill="#f2f2ef" stroke="#0b0b0c" stroke-width="1.00"/></g><g transform="translate(460.0,140.0) rotate(0) translate(-20.0,-20.0)"><circle cx="20.0" cy="20.0" r="14.4" fill="#3a3a3d" stroke="#bdbdb8" stroke-width="2.00"/><circle cx="20.0" cy="20.0" r="9.6" fill="#5a5a5d" stroke="#0b0b0c" stroke-width="1.00"/><circle cx="20.0" cy="20.0" r="14.4" fill="none" stroke="#f2f2ef" stroke-width="1.00"/></g><g transform="translate(560.0,200.0) rotate(90) translate(-40.0,-80.0)"><rect x="0.0" y="0.0" width="80.0" height="160.0" rx="3.0" fill="#3a3a3d" stroke="#bdbdb8" stroke-width="3.00"/><line x1="40.0" y1="4.8" x2="40.0" y2="155.2" stroke="#0b0b0c" stroke-width="2.00" stroke-linecap="round"/><circle cx="33.6" cy="80.0" r="3.2" fill="#bdbdb8" stroke="#0b0b0c" stroke-width="1.00"/><circle cx="46.4" cy="80.0" r="3.2" fill="#bdbdb8" stroke="#0b0b0c" stroke-width="1.00"/><rect x="6.4" y="8.0" width="67.2" height="9.6" rx="0.0" fill="#5a5a5d" stroke="#0b0b0c" stroke-width="1.00"/></g><g transform="translate(580.0,40.0) rotate(0) translate(-60.0,-40.0)"><rect x="0.0" y="0.0" width="120.0" height="48.0" rx="3.0" fill="#0b0b0c" stroke="#bdbdb8" stroke-width="2.00"/><rect x="0.0" y="48.0" width="120.0" height="24.0" rx="0.0" fill="#f2f2ef" stroke="#0b0b0c" stroke-width="1.00"/><line x1="9.6" y1="48.0" x2="9.6" y2="72.0" stroke="#0b0b0c" stroke-width="1.00" stroke-linecap="round"/><line x1="19.2" y1="48.0" x2="19.2" y2="72.0" stroke="#0b0b0c" stroke-width="1.00" stroke-linecap="round"/><line x1="28.8" y1="48.0" x2="28.8" y2="72.0" stroke="#0b0b0c" stroke-width="1.00" stroke-linecap="round"/><line x1="38.4" y1="48.0" x2="38.4" y2="72.0" stroke="#0b0b0c" stroke-width="1.00" stroke-linecap="round"/><line x1="48.0" y1="48.0" x2="48.0" y2="72.0" stroke="#0b0b0c" stroke-width="1.00" stroke-linecap="round"/><line x1="57.6" y1="48.0" x2="57.6" y2="72.0" stroke="#0b0b0c" stroke-width="1.00" stroke-linecap="round"/><line x1="67.2" y1="48.0" x2="67.2" y2="72.0" stroke="#0b0b0c" stroke-width="1.00" stroke-linecap="round"/><line x1="76.8" y1="48.0" x2="76.8" y2="72.0" stroke="#0b0b0c" stroke-width="1.00" stroke-linecap="round"/><line x1="86.4" y1="48.0" x2="86.4" y2="72.0" stroke="#0b0b0c" stroke-width="1.00" stroke-linecap="round"/><line x1="96.0" y1="48.0" x2="96.0" y2="72.0" stroke="#0b0b0c" stroke-width="1.00" stroke-linecap="round"/><line x1="105.6" y1="48.0" x2="105.6" y2="72.0" stroke="#0b0b0c" stroke-width="1.00" stroke-linecap="round"/><line x1="115.2" y1="48.0" x2="115.2" y2="72.0" stroke="#0b0b0c" stroke-width="1.00" stroke-linecap="round"/><rect x="7.2" y="48.0" width="4.8" height="13.6" rx="0.0" fill="#0b0b0c" stroke="none"/><rect x="16.8" y="48.0" width="4.8" height="13.6" rx="0.0" fill="#0b0b0c" stroke="none"/><rect x="36.0" y="48.0" width="4.8" height="13.6" rx="0.0" fill="#0b0b0c" stroke="none"/><rect x="45.6" y="48.0" width="4.8" height="13.6" rx="0.0" fill="#0b0b0c" stroke="none"/><rect x="55.2" y="48.0" width="4.8" height="13.6" rx="0.0" fill="#0b0b0c" stroke="none"/><rect x="74.4" y="48.0" width="4.8" height="13.6" rx="0.0" fill="#0b0b0c" stroke="none"/><rect x="84.0" y="48.0" width="4.8" height="13.6" rx="0.0" fill="#0b0b0c" stroke="none"/><rect x="103.2" y="48.0" width="4.8" height="13.6" rx="0.0" fill="#0b0b0c" stroke="none"/></g><g transform="translate(20.0,20.0) rotate(0) translate(-20.0,-20.0)"><circle cx="20.0" cy="20.0" r="16.0" fill="#d8d8d2" stroke="#5a5a5d" stroke-width="3.00"/><line x1="20.0" y1="20.0" x2="20.0" y2="8.8" stroke="#0b0b0c" stroke-width="3.00" stroke-linecap="round"/><line x1="20.0" y1="20.0" x2="28.8" y2="22.0" stroke="#0b0b0c" stroke-width="2.00" stroke-linecap="round"/><circle cx="20.0" cy="20.0" r="2.0" fill="#0b0b0c" stroke="#0b0b0c" stroke-width="1.00"/></g><g transform="translate(420.0,20.0) rotate(0) translate(-20.0,-20.0)"><rect x="6.0" y="8.0" width="28.0" height="24.0" rx="2.0" fill="#8a8a85" stroke="#bdbdb8" stroke-width="3.00"/><rect x="10.4" y="12.0" width="19.2" height="16.0" rx="0.0" fill="#3a3a3d" stroke="#0b0b0c" stroke-width="1.00"/><circle cx="20.0" cy="17.6" r="3.2" fill="#bdbdb8" stroke="#0b0b0c" stroke-width="1.00"/><ellipse cx="20.0" cy="25.6" rx="5.6" ry="2.4" fill="#bdbdb8" stroke="#0b0b0c" stroke-width="1.00"/></g><g transform="translate(180.0,20.0) rotate(0) translate(-20.0,-20.0)"><rect x="6.0" y="8.0" width="28.0" height="24.0" rx="2.0" fill="#8a8a85" stroke="#bdbdb8" stroke-width="3.00"/><rect x="10.4" y="12.0" width="19.2" height="16.0" rx="0.0" fill="#3a3a3d" stroke="#0b0b0c" stroke-width="1.00"/><circle cx="20.0" cy="17.6" r="3.2" fill="#bdbdb8" stroke="#0b0b0c" stroke-width="1.00"/><ellipse cx="20.0" cy="25.6" rx="5.6" ry="2.4" fill="#bdbdb8" stroke="#0b0b0c" stroke-width="1.00"/></g><g transform="translate(200.0,220.0) rotate(0) translate(-40.0,-60.0)"><rect x="0.0" y="0.0" width="80.0" height="120.0" rx="2.0" fill="#3a3a3d" stroke="#bdbdb8" stroke-width="2.00"/><rect x="4.0" y="9.6" width="72.0" height="12.0" rx="0.0" fill="#5a5a5d" stroke="#0b0b0c" stroke-width="1.00"/><rect x="4.0" y="31.2" width="72.0" height="12.0" rx="0.0" fill="#8a8a85" stroke="#0b0b0c" stroke-width="1.00"/><rect x="4.0" y="52.8" width="72.0" height="12.0" rx="0.0" fill="#bdbdb8" stroke="#0b0b0c" stroke-width="1.00"/><rect x="4.0" y="74.4" width="72.0" height="12.0" rx="0.0" fill="#d8d8d2" stroke="#0b0b0c" stroke-width="1.00"/><rect x="4.0" y="96.0" width="72.0" height="12.0" rx="0.0" fill="#f2f2ef" stroke="#0b0b0c" stroke-width="1.00"/></g><g transform="translate(40.0,120.0) rotate(-90) translate(-40.0,-40.0)"><rect x="0.0" y="0.0" width="80.0" height="80.0" rx="2.0" fill="#0b0b0c" stroke="#bdbdb8" stroke-width="3.00"/><line x1="40.0" y1="6.4" x2="40.0" y2="73.6" stroke="#8a8a85" stroke-width="2.00" stroke-linecap="round"/><polygon points="20.0,33.6 28.0,22.4 36.0,33.6" fill="#f2f2ef" stroke="none" stroke-linejoin="round"/><polygon points="44.0,46.4 52.0,57.6 60.0,46.4" fill="#f2f2ef" stroke="none" stroke-linejoin="round"/></g><g transform="translate(20.0,380.0) rotate(0) translate(-20.0,-20.0)"><circle cx="20.0" cy="20.0" r="16.0" fill="#d8d8d2" stroke="#5a5a5d" stroke-width="2.00"/><circle cx="20.0" cy="20.0" r="5.6" fill="#f2f2ef" stroke="#0b0b0c" stroke-width="1.00"/></g><g transform="translate(340.0,140.0) rotate(0) translate(-20.0,-20.0)"><rect x="15.2" y="4.8" width="9.6" height="30.4" rx="6.0" fill="#3a3a3d" stroke="#bdbdb8" stroke-width="2.00"/><circle cx="18.0" cy="13.3" r="1.6" fill="#bdbdb8" stroke="#0b0b0c" stroke-width="1.00"/><circle cx="18.0" cy="20.0" r="1.6" fill="#bdbdb8" stroke="#0b0b0c" stroke-width="1.00"/><circle cx="18.0" cy="26.7" r="1.6" fill="#bdbdb8" stroke="#0b0b0c" stroke-width="1.00"/><circle cx="22.0" cy="13.3" r="1.6" fill="#bdbdb8" stroke="#0b0b0c" stroke-width="1.00"/><circle cx="22.0" cy="20.0" r="1.6" fill="#bdbdb8" stroke="#0b0b0c" stroke-width="1.00"/><circle cx="22.0" cy="26.7" r="1.6" fill="#bdbdb8" stroke="#0b0b0c" stroke-width="1.00"/></g><g transform="translate(620.0,20.0) rotate(0) translate(-20.0,-20.0)"><rect x="8.0" y="6.0" width="8.8" height="28.0" rx="6.0" fill="#bdbdb8" stroke="#0b0b0c" stroke-width="1.00"/><rect x="23.2" y="6.0" width="8.8" height="28.0" rx="6.0" fill="#bdbdb8" stroke="#0b0b0c" stroke-width="1.00"/><circle cx="12.4" cy="10.0" r="2.0" fill="#0b0b0c" stroke="#8a8a85" stroke-width="1.00"/><circle cx="12.4" cy="18.0" r="2.0" fill="#0b0b0c" stroke="#8a8a85" stroke-width="1.00"/><circle cx="12.4" cy="26.0" r="2.0" fill="#0b0b0c" stroke="#8a8a85" stroke-width="1.00"/><circle cx="12.4" cy="32.0" r="2.0" fill="#0b0b0c" stroke="#8a8a85" stroke-width="1.00"/><circle cx="27.6" cy="10.0" r="2.0" fill="#0b0b0c" stroke="#8a8a85" stroke-width="1.00"/><circle cx="27.6" cy="18.0" r="2.0" fill="#0b0b0c" stroke="#8a8a85" stroke-width="1.00"/><circle cx="27.6" cy="26.0" r="2.0" fill="#0b0b0c" stroke="#8a8a85" stroke-width="1.00"/><circle cx="27.6" cy="32.0" r="2.0" fill="#0b0b0c" stroke="#8a8a85" stroke-width="1.00"/></g><text x="320" y="236" fill="#0a0a0b" stroke="#0a0a0b" stroke-width="3.1" stroke-linejoin="round" font-family="Patrick Hand, Comic Sans MS, sans-serif" font-size="11" text-anchor="middle">Rug</text><text x="320" y="236" fill="#f2f2ef" font-family="Patrick Hand, Comic Sans MS, sans-serif" font-size="11" text-anchor="middle">Rug</text><text x="160" y="116" fill="#0a0a0b" stroke="#0a0a0b" stroke-width="3.1" stroke-linejoin="round" font-family="Patrick Hand, Comic Sans MS, sans-serif" font-size="11" text-anchor="middle">Doormat</text><text x="160" y="116" fill="#f2f2ef" font-family="Patrick Hand, Comic Sans MS, sans-serif" font-size="11" text-anchor="middle">Doormat</text><text x="320" y="396" fill="#0a0a0b" stroke="#0a0a0b" stroke-width="3.1" stroke-linejoin="round" font-family="Patrick Hand, Comic Sans MS, sans-serif" font-size="11" text-anchor="middle">Sofa</text><text x="320" y="396" fill="#f2f2ef" font-family="Patrick Hand, Comic Sans MS, sans-serif" font-size="11" text-anchor="middle">Sofa</text><text x="300" y="36" fill="#0a0a0b" stroke="#0a0a0b" stroke-width="3.1" stroke-linejoin="round" font-family="Patrick Hand, Comic Sans MS, sans-serif" font-size="11" text-anchor="middle">Big TV</text><text x="300" y="36" fill="#f2f2ef" font-family="Patrick Hand, Comic Sans MS, sans-serif" font-size="11" text-anchor="middle">Big TV</text><text x="460" y="156" fill="#0a0a0b" stroke="#0a0a0b" stroke-width="3.1" stroke-linejoin="round" font-family="Patrick Hand, Comic Sans MS, sans-serif" font-size="11" text-anchor="middle">Alexa speaker</text><text x="460" y="156" fill="#f2f2ef" font-family="Patrick Hand, Comic Sans MS, sans-serif" font-size="11" text-anchor="middle">Alexa speaker</text><text x="560" y="236" fill="#0a0a0b" stroke="#0a0a0b" stroke-width="3.1" stroke-linejoin="round" font-family="Patrick Hand, Comic Sans MS, sans-serif" font-size="11" text-anchor="middle">Big cupboard</text><text x="560" y="236" fill="#f2f2ef" font-family="Patrick Hand, Comic Sans MS, sans-serif" font-size="11" text-anchor="middle">Big cupboard</text><text x="580" y="76" fill="#0a0a0b" stroke="#0a0a0b" stroke-width="3.1" stroke-linejoin="round" font-family="Patrick Hand, Comic Sans MS, sans-serif" font-size="11" text-anchor="middle">Piano</text><text x="580" y="76" fill="#f2f2ef" font-family="Patrick Hand, Comic Sans MS, sans-serif" font-size="11" text-anchor="middle">Piano</text><text x="20" y="36" fill="#0a0a0b" stroke="#0a0a0b" stroke-width="3.1" stroke-linejoin="round" font-family="Patrick Hand, Comic Sans MS, sans-serif" font-size="11" text-anchor="middle">Wall clock</text><text x="20" y="36" fill="#f2f2ef" font-family="Patrick Hand, Comic Sans MS, sans-serif" font-size="11" text-anchor="middle">Wall clock</text><text x="420" y="36" fill="#0a0a0b" stroke="#0a0a0b" stroke-width="3.1" stroke-linejoin="round" font-family="Patrick Hand, Comic Sans MS, sans-serif" font-size="11" text-anchor="middle">Photo frame</text><text x="420" y="36" fill="#f2f2ef" font-family="Patrick Hand, Comic Sans MS, sans-serif" font-size="11" text-anchor="middle">Photo frame</text><text x="180" y="36" fill="#0a0a0b" stroke="#0a0a0b" stroke-width="3.1" stroke-linejoin="round" font-family="Patrick Hand, Comic Sans MS, sans-serif" font-size="11" text-anchor="middle">Photo frame</text><text x="180" y="36" fill="#f2f2ef" font-family="Patrick Hand, Comic Sans MS, sans-serif" font-size="11" text-anchor="middle">Photo frame</text><text x="200" y="276" fill="#0a0a0b" stroke="#0a0a0b" stroke-width="3.1" stroke-linejoin="round" font-family="Patrick Hand, Comic Sans MS, sans-serif" font-size="11" text-anchor="middle">Zigzag stairs</text><text x="200" y="276" fill="#f2f2ef" font-family="Patrick Hand, Comic Sans MS, sans-serif" font-size="11" text-anchor="middle">Zigzag stairs</text><text x="40" y="156" fill="#0a0a0b" stroke="#0a0a0b" stroke-width="3.1" stroke-linejoin="round" font-family="Patrick Hand, Comic Sans MS, sans-serif" font-size="11" text-anchor="middle">Lift</text><text x="40" y="156" fill="#f2f2ef" font-family="Patrick Hand, Comic Sans MS, sans-serif" font-size="11" text-anchor="middle">Lift</text><text x="20" y="396" fill="#0a0a0b" stroke="#0a0a0b" stroke-width="3.1" stroke-linejoin="round" font-family="Patrick Hand, Comic Sans MS, sans-serif" font-size="11" text-anchor="middle">Floor lamp</text><text x="20" y="396" fill="#f2f2ef" font-family="Patrick Hand, Comic Sans MS, sans-serif" font-size="11" text-anchor="middle">Floor lamp</text><text x="340" y="158" fill="#0a0a0b" stroke="#0a0a0b" stroke-width="3.1" stroke-linejoin="round" font-family="Patrick Hand, Comic Sans MS, sans-serif" font-size="11" text-anchor="middle">TV remote</text><text x="340" y="158" fill="#f2f2ef" font-family="Patrick Hand, Comic Sans MS, sans-serif" font-size="11" text-anchor="middle">TV remote</text><text x="620" y="38" fill="#0a0a0b" stroke="#0a0a0b" stroke-width="3.1" stroke-linejoin="round" font-family="Patrick Hand, Comic Sans MS, sans-serif" font-size="11" text-anchor="middle">Skates</text><text x="620" y="38" fill="#f2f2ef" font-family="Patrick Hand, Comic Sans MS, sans-serif" font-size="11" text-anchor="middle">Skates</text></g></svg>