<svg xmlns="http://www.w3.org/2000/svg" width="640" height="440" viewBox="0 0 640 440"><rect x="0" y="0" width="640" height="440" fill="#0a0a0b"/><g transform="translate(40,40)"><rect x="0" y="0" width="560" height="360" fill="#1a1a1c"/><line x1="0" y1="0" x2="0" y2="360" stroke="#242427" stroke-width="1"/><line x1="40" y1="0" x2="40" y2="360" stroke="#242427" stroke-width="1"/><line x1="80" y1="0" x2="80" y2="360" stroke="#242427" stroke-width="1"/><line x1="120" y1="0" x2="120" y2="360" stroke="#242427" stroke-width="1"/><line x1="160" y1="0" x2="160" y2="360" stroke="#242427" stroke-width="1"/><line x1="200" y1="0" x2="200" y2="360" stroke="#242427" stroke-width="1"/><line x1="240" y1="0" x2="240" y2="360" stroke="#242427" stroke-width="1"/><line x1="280" y1="0" x2="280" y2="360" stroke="#242427" stroke-width="1"/><line x1="320" y1="0" x2="320" y2="360" stroke="#242427" stroke-width="1"/><line x1="360" y1="0" x2="360" y2="360" stroke="#242427" stroke-width="1"/><line x1="400" y1="0" x2="400" y2="360" stroke="#242427" stroke-width="1"/><line x1="440" y1="0" x2="440" y2="360" stroke="#242427" stroke-width="1"/><line x1="480" y1="0" x2="480" y2="360" stroke="#242427" stroke-width="1"/><line x1="520" y1="0" x2="520" y2="360" stroke="#242427" stroke-width="1"/><line x1="560" y1="0" x2="560" y2="360" stroke="#242427" stroke-width="1"/><line x1="0" y1="0" x2="560" y2="0" stroke="#242427" stroke-width="1"/><line x1="0" y1="40" x2="560" y2="40" stroke="#242427" stroke-width="1"/><line x1="0" y1="80" x2="560" y2="80" stroke="#242427" stroke-width="1"/><line x1="0" y1="120" x2="560" y2="120" stroke="#242427" stroke-width="1"/><line x1="0" y1="160" x2="560" y2="160" stroke="#242427" stroke-width="1"/><line x1="0" y1="200" x2="560" y2="200" stroke="#242427" stroke-width="1"/><line x1="0" y1="240" x2="560" y2="240" stroke="#242427" stroke-width="1"/><line x1="0" y1="280" x2="560" y2="280" stroke="#242427" stroke-width="1"/><line x1="0" y1="320" x2="560" y2="320" stroke="#242427" stroke-width="1"/><line x1="0" y1="360" x2="560" y2="360" stroke="#242427" stroke-width="1"/><rect x="-7.0" y="-7.0" width="574" height="374" fill="none" stroke="#2e2e31" stroke-width="14"/><rect x="0" y="0" width="560" height="360" fill="none" stroke="#4a4a4d" stroke-width="2"/><rect x="558" y="120" width="17" height="80" fill="#1a1a1c"/><rect x="558" y="120" width="17" height="80" fill="none" stroke="#8a8a85" stroke-width="1" stroke-dasharray="3 4"/><text x="578" y="114" fill="#bdbdb8" font-family="Patrick Hand, Comic Sans MS, sans-serif" font-size="15" text-anchor="end">→ Hall</text><rect x="80" y="358" width="80" height="17" fill="#1a1a1c"/><rect x="80" y="358" width="80" height="17" fill="none" stroke="#8a8a85" stroke-width="1" stroke-dasharray="3 4"/><text x="120.0" y="392" fill="#bdbdb8" font-family="Patrick Hand, Comic Sans MS, sans-serif" font-size="15" text-anchor="middle">→ Store room</text><g transform="translate(40.0,40.0) rotate(0) translate(-40.0,-40.0)"><rect x="0.0" y="0.0" width="80.0" height="80.0" rx="4.0" fill="#d8d8d2" stroke="#8a8a85" stroke-width="3.00"/><line x1="0.0" y1="28.0" x2="80.0" y2="28.0" stroke="#8a8a85" stroke-width="2.00" stroke-linecap="round"/><rect x="68.0" y="36.0" width="4.8" height="28.0" rx="2.0" fill="#5a5a5d" stroke="#0b0b0c" stroke-width="1.00"/><rect x="68.0" y="8.0" width="4.8" height="14.4" rx="2.0" fill="#5a5a5d" stroke="#0b0b0c" stroke-width="1.00"/></g><g transform="translate(280.0,20.0) rotate(0) translate(-40.0,-20.0)"><rect x="0.0" y="0.0" width="80.0" height="40.0" rx="1.0" fill="#3a3a3d" stroke="#5a5a5d" stroke-width="2.00"/><line x1="40.0" y1="0.0" x2="40.0" y2="40.0" stroke="#26262a" stroke-width="1.00" stroke-linecap="round"/></g><g transform="translate(180.0,20.0) rotate(0) translate(-60.0,-20.0)"><rect x="0.0" y="2.0" width="120.0" height="36.0" rx="3.0" fill="#0b0b0c" stroke="#bdbdb8" stroke-width="2.00"/><circle cx="30.0" cy="20.0" r="5.6" fill="none" stroke="#bdbdb8" stroke-width="2.00"/><circle cx="30.0" cy="20.0" r="2.4" fill="#5a5a5d" stroke="#8a8a85" stroke-width="1.00"/><circle cx="90.0" cy="20.0" r="5.6" fill="none" stroke="#bdbdb8" stroke-width="2.00"/><circle cx="90.0" cy="20.0" r="2.4" fill="#5a5a5d" stroke="#8a8a85" stroke-width="1.00"/></g><g transform="translate(360.0,20.0) rotate(0) translate(-40.0,-20.0)"><rect x="0.0" y="0.0" width="80.0" height="40.0" rx="1.0" fill="#3a3a3d" stroke="#5a5a5d" stroke-width="2.00"/><line x1="40.0" y1="0.0" x2="40.0" y2="40.0" stroke="#26262a" stroke-width="1.00" stroke-linecap="round"/></g><g transform="translate(440.0,20.0) rotate(0) translate(-40.0,-20.0)"><rect x="0.0" y="2.0" width="80.0" height="36.0" rx="3.0" fill="#bdbdb8" stroke="#8a8a85" stroke-width="2.00"/><rect x="12.0" y="8.0" width="56.0" height="24.0" rx="6.0" fill="#8a8a85" stroke="#5a5a5d" stroke-width="2.00"/><circle cx="40.0" cy="20.0" r="2.0" fill="#0b0b0c" stroke="#0b0b0c" stroke-width="1.00"/><line x1="40.0" y1="2.0" x2="40.0" y2="10.0" stroke="#3a3a3d" stroke-width="4.00" stroke-linecap="round"/></g><g transform="translate(520.0,20.0) rotate(0) translate(-40.0,-20.0)"><rect x="0.0" y="0.0" width="80.0" height="40.0" rx="1.0" fill="#3a3a3d" stroke="#5a5a5d" stroke-width="2.00"/><line x1="40.0" y1="0.0" x2="40.0" y2="40.0" stroke="#26262a" stroke-width="1.00" stroke-linecap="round"/></g><g transform="translate(20.0,160.0) rotate(-90) translate(-40.0,-20.0)"><rect x="0.0" y="6.0" width="80.0" height="28.0" rx="2.0" fill="#3a3a3d" stroke="#5a5a5d" stroke-width="1.00"/><circle cx="9.6" cy="20.0" r="4.8" fill="#8a8a85" stroke="#0b0b0c" stroke-width="1.00"/><circle cx="24.8" cy="20.0" r="4.8" fill="#bdbdb8" stroke="#0b0b0c" stroke-width="1.00"/><circle cx="40.0" cy="20.0" r="4.8" fill="#5a5a5d" stroke="#0b0b0c" stroke-width="1.00"/><circle cx="55.2" cy="20.0" r="4.8" fill="#d8d8d2" stroke="#0b0b0c" stroke-width="1.00"/><circle cx="70.4" cy="20.0" r="4.8" fill="#8a8a85" stroke="#0b0b0c" stroke-width="1.00"/></g><g transform="translate(300.0,180.0) rotate(0) translate(-100.0,-60.0)"><rect x="0.0" y="0.0" width="200.0" height="120.0" rx="6.0" fill="#5a5a5d" stroke="#bdbdb8" stroke-width="2.00"/><circle cx="40.0" cy="30.0" r="10.8" fill="#f2f2ef" stroke="#8a8a85" stroke-width="1.00"/><circle cx="40.0" cy="90.0" r="10.8" fill="#f2f2ef" stroke="#8a8a85" stroke-width="1.00"/><circle cx="100.0" cy="30.0" r="10.8" fill="#f2f2ef" stroke="#8a8a85" stroke-width="1.00"/><circle cx="100.0" cy="90.0" r="10.8" fill="#f2f2ef" stroke="#8a8a85" stroke-width="1.00"/><circle cx="160.0" cy="30.0" r="10.8" fill="#f2f2ef" stroke="#8a8a85" stroke-width="1.00"/><circle cx="160.0" cy="90.0" r="10.8" fill="#f2f2ef" stroke="#8a8a85" stroke-width="1.00"/><circle cx="40.0" cy="30.0" r="6.0" fill="#bdbdb8" stroke="#8a8a85" stroke-width="1.00"/><circle cx="40.0" cy="90.0" r="6.0" fill="#bdbdb8" stroke="#8a8a85" stroke-width="1.00"/><circle cx="100.0" cy="30.0" r="6.0" fill="#bdbdb8" stroke="#8a8a85" stroke-width="1.00"/><circle cx="100.0" cy="90.0" r="6.0" fill="#bdbdb8" stroke="#8a8a85" stroke-width="1.00"/><circle cx="160.0" cy="30.0" r="6.0" fill="#bdbdb8" stroke="#8a8a85" stroke-width="1.00"/><circle cx="160.0" cy="90.0" r="6.0" fill="#bdbdb8" stroke="#8a8a85" stroke-width="1.00"/></g><g transform="translate(140.0,140.0) rotate(0) translate(-20.0,-20.0)"><rect x="6.0" y="10.0" width="28.0" height="26.0" rx="3.0" fill="#3a3a3d" stroke="#bdbdb8" stroke-width="2.00"/><rect x="6.0" y="4.0" width="28.0" height="6.4" rx="2.0" fill="#5a5a5d" stroke="#bdbdb8" stroke-width="2.00"/></g><g transform="translate(460.0,260.0) rotate(0) translate(-20.0,-20.0)"><rect x="6.0" y="10.0" width="28.0" height="26.0" rx="3.0" fill="#3a3a3d" stroke="#bdbdb8" stroke-width="2.00"/><rect x="6.0" y="4.0" width="28.0" height="6.4" rx="2.0" fill="#5a5a5d" stroke="#bdbdb8" stroke-width="2.00"/></g><g transform="translate(20.0,340.0) rotate(0) translate(-20.0,-20.0)"><rect x="7.2" y="7.2" width="25.6" height="25.6" rx="8.0" fill="#bdbdb8" stroke="#8a8a85" stroke-width="2.00"/><line x1="7.2" y1="14.0" x2="32.8" y2="14.0" stroke="#8a8a85" stroke-width="1.00" stroke-linecap="round"/><rect x="13.6" y="19.2" width="12.8" height="6.4" rx="2.0" fill="#5a5a5d" stroke="#0b0b0c" stroke-width="1.00"/></g><g transform="translate(260.0,20.0) rotate(0) translate(-20.0,-20.0)"><polygon points="8.0,28.0 24.8,11.2 28.0,12.0 12.0,29.6" fill="#d8d8d2" stroke="#8a8a85" stroke-width="1.00" stroke-linejoin="round"/><rect x="24.8" y="7.2" width="3.2" height="8.8" rx="2.0" fill="#0b0b0c" stroke="#8a8a85" stroke-width="1.00"/></g><g transform="translate(340.0,20.0) rotate(0) translate(-20.0,-20.0)"><polygon points="10.0,28.0 18.0,18.0 28.0,11.2 31.2,12.0 22.0,22.0 12.0,30.0" fill="#5a5a5d" stroke="#bdbdb8" stroke-width="2.00" stroke-linejoin="round"/><line x1="29.6" y1="11.6" x2="32.8" y2="7.2" stroke="#bdbdb8" stroke-width="2.00" stroke-linecap="round"/></g><g transform="translate(540.0,20.0) rotate(0) translate(-20.0,-20.0)"><ellipse cx="20.0" cy="20.0" rx="12.0" ry="8.8" fill="#d8d8d2" stroke="#8a8a85" stroke-width="2.00"/><circle cx="8.0" cy="20.0" r="1.6" fill="#bdbdb8" stroke="#8a8a85" stroke-width="1.00"/><circle cx="32.0" cy="20.0" r="1.6" fill="#bdbdb8" stroke="#8a8a85" stroke-width="1.00"/></g><g transform="translate(220.0,220.0) rotate(0) translate(-20.0,-20.0)"><circle cx="20.0" cy="20.0" r="12.0" fill="#f2f2ef" stroke="#8a8a85" stroke-width="2.00"/><circle cx="20.0" cy="20.0" r="7.2" fill="#d8d8d2" stroke="#8a8a85" stroke-width="1.00"/><circle cx="18.0" cy="18.0" r="0.8" fill="#8a8a85" stroke="#0b0b0c" stroke-width="1.00"/><circle cx="18.0" cy="22.0" r="0.8" fill="#8a8a85" stroke="#0b0b0c" stroke-width="1.00"/><circle cx="22.0" cy="18.0" r="0.8" fill="#8a8a85" stroke="#0b0b0c" stroke-width="1.00"/><circle cx="22.0" cy="22.0" r="0.8" fill="#8a8a85" stroke="#0b0b0c" stroke-width="1.00"/></g><g transform="translate(340.0,140.0) rotate(0) translate(-20.0,-20.0)"><circle cx="20.0" cy="20.0" r="12.0" fill="#bdbdb8" stroke="#8a8a85" stroke-width="2.00"/><rect x="14.4" y="14.4" width="11.2" height="11.2" rx="2.0" fill="#d8d8d2" stroke="#8a8a85" stroke-width="1.00"/></g><g transform="translate(380.0,180.0) rotate(0) translate(-20.0,-20.0)"><circle cx="20.0" cy="20.0" r="12.8" fill="#f2f2ef" stroke="#8a8a85" stroke-width="1.00"/><circle cx="18.4" cy="20.0" r="8.0" fill="#d8d8d2" stroke="#8a8a85" stroke-width="2.00"/><circle cx="18.4" cy="20.0" r="5.2" fill="#5a5a5d" stroke="none"/><rect x="25.6" y="17.6" width="5.6" height="4.8" rx="4.0" fill="#d8d8d2" stroke="#8a8a85" stroke-width="1.00"/></g><g transform="translate(300.0,20.0) rotate(0) translate(-20.0,-20.0)"><rect x="7.2" y="10.0" width="25.6" height="20.0" rx="3.0" fill="#bdbdb8" stroke="#8a8a85" stroke-width="2.00"/><polyline points="10.0,20.0 14.0,16.8 18.0,22.0 22.0,16.8 26.0,22.0 30.0,18.0" fill="none" stroke="#0b0b0c" stroke-width="2.00" stroke-linecap="round" stroke-linejoin="round"/></g><g transform="translate(260.0,140.0) rotate(0) translate(-20.0,-20.0)"><circle cx="20.0" cy="20.0" r="13.6" fill="#5a5a5d" stroke="#8a8a85" stroke-width="2.00"/><ellipse cx="16.0" cy="16.8" rx="2.8" ry="1.8" fill="#d8d8d2" stroke="#8a8a85" stroke-width="1.00"/><ellipse cx="24.0" cy="17.6" rx="2.8" ry="1.8" fill="#d8d8d2" stroke="#8a8a85" stroke-width="1.00"/><ellipse cx="20.0" cy="24.0" rx="2.8" ry="1.8" fill="#d8d8d2" stroke="#8a8a85" stroke-width="1.00"/><ellipse cx="15.2" cy="23.2" rx="2.8" ry="1.8" fill="#d8d8d2" stroke="#8a8a85" stroke-width="1.00"/><ellipse cx="24.8" cy="24.0" rx="2.8" ry="1.8" fill="#d8d8d2" stroke="#8a8a85" stroke-width="1.00"/><ellipse cx="20.0" cy="14.4" rx="2.8" ry="1.8" fill="#d8d8d2" stroke="#8a8a85" stroke-width="1.00"/></g><g transform="translate(220.0,300.0) rotate(0) translate(-20.0,-20.0)"><line x1="20.0" y1="0.0" x2="20.0" y2="18.0" stroke="#8a8a85" stroke-width="2.00" stroke-linecap="round"/><circle cx="20.0" cy="24.8" r="8.0" fill="#f2f2ef" stroke="#bdbdb8" stroke-width="2.00"/><circle cx="20.0" cy="24.8" r="13.6" fill="none" stroke="#3a3a3d" stroke-width="1.00"/></g><text x="40" y="76" fill="#0a0a0b" stroke="#0a0a0b" stroke-width="3.1" stroke-linejoin="round" font-family="Patrick Hand, Comic Sans MS, sans-serif" font-size="11" text-anchor="middle">Fridge</text><text x="40" y="76" fill="#f2f2ef" font-family="Patrick Hand, Comic Sans MS, sans-serif" font-size="11" text-anchor="middle">Fridge</text><text x="280" y="36" fill="#0a0a0b" stroke="#0a0a0b" stroke-width="3.1" stroke-linejoin="round" font-family="Patrick Hand, Comic Sans MS, sans-serif" font-size="11" text-anchor="middle">Kitchen counter</text><text x="280" y="36" fill="#f2f2ef" font-family="Patrick Hand, Comic Sans MS, sans-serif" font-size="11" text-anchor="middle">Kitchen counter</text><text x="180" y="36" fill="#0a0a0b" stroke="#0a0a0b" stroke-width="3.1" stroke-linejoin="round" font-family="Patrick Hand, Comic Sans MS, sans-serif" font-size="11" text-anchor="middle">Gas stove</text><text x="180" y="36" fill="#f2f2ef" font-family="Patrick Hand, Comic Sans MS, sans-serif" font-size="11" text-anchor="middle">Gas stove</text><text x="360" y="36" fill="#0a0a0b" stroke="#0a0a0b" stroke-width="3.1" stroke-linejoin="round" font-family="Patrick Hand, Comic Sans MS, sans-serif" font-size="11" text-anchor="middle">Kitchen counter</text><text x="360" y="36" fill="#f2f2ef" font-family="Patrick Hand, Comic Sans MS, sans-serif" font-size="11" text-anchor="middle">Kitchen counter</text><text x="440" y="36" fill="#0a0a0b" stroke="#0a0a0b" stroke-width="3.1" stroke-linejoin="round" font-family="Patrick Hand, Comic Sans MS, sans-serif" font-size="11" text-anchor="middle">Sink</text><text x="440" y="36" fill="#f2f2ef" font-family="Patrick Hand, Comic Sans MS, sans-serif" font-size="11" text-anchor="middle">Sink</text><text x="520" y="36" fill="#0a0a0b" stroke="#0a0a0b" stroke-width="3.1" stroke-linejoin="round" font-family="Patrick Hand, Comic Sans MS, sans-serif" font-size="11" text-anchor="middle">Kitchen counter</text><text x="520" y="36" fill="#f2f2ef" font-family="Patrick Hand, Comic Sans MS, sans-serif" font-size="11" text-anchor="middle">Kitchen counter</text><text x="20" y="196" fill="#0a0a0b" stroke="#0a0a0b" stroke-width="3.1" stroke-linejoin="round" font-family="Patrick Hand, Comic Sans MS, sans-serif" font-size="11" text-anchor="middle">Spice jars</text><text x="20" y="196" fill="#f2f2ef" font-family="Patrick Hand, Comic Sans MS, sans-serif" font-size="11" text-anchor="middle">Spice jars</text><text x="300" y="236" fill="#0a0a0b" stroke="#0a0a0b" stroke-width="3.1" stroke-linejoin="round" font-family="Patrick Hand, Comic Sans MS, sans-serif" font-size="11" text-anchor="middle">Dining table</text><text x="300" y="236" fill="#f2f2ef" font-family="Patrick Hand, Comic Sans MS, sans-serif" font-size="11" text-anchor="middle">Dining table</text><text x="140" y="156" fill="#0a0a0b" stroke="#0a0a0b" stroke-width="3.1" stroke-linejoin="round" font-family="Patrick Hand, Comic Sans MS, sans-serif" font-size="11" text-anchor="middle">Chair</text><text x="140" y="156" fill="#f2f2ef" font-family="Patrick Hand, Comic Sans MS, sans-serif" font-size="11" text-anchor="middle">Chair</text><text x="460" y="276" fill="#0a0a0b" stroke="#0a0a0b" stroke-width="3.1" stroke-linejoin="round" font-family="Patrick Hand, Comic Sans MS, sans-serif" font-size="11" text-anchor="middle">Chair</text><text x="460" y="276" fill="#f2f2ef" font-family="Patrick Hand, Comic Sans MS, sans-serif" font-size="11" text-anchor="middle">Chair</text><text x="20" y="356" fill="#0a0a0b" stroke="#0a0a0b" stroke-width="3.1" stroke-linejoin="round" font-family="Patrick Hand, Comic Sans MS, sans-serif" font-size="11" text-anchor="middle">Cement bag</text><text x="20" y="356" fill="#f2f2ef" font-family="Patrick Hand, Comic Sans MS, sans-serif" font-size="11" text-anchor="middle">Cement bag</text><text x="220" y="316" fill="#0a0a0b" stroke="#0a0a0b" stroke-width="3.1" stroke-linejoin="round" font-family="Patrick Hand, Comic Sans MS, sans-serif" font-size="11" text-anchor="middle">Hanging bulb</text><text x="220" y="316" fill="#f2f2ef" font-family="Patrick Hand, Comic Sans MS, sans-serif" font-size="11" text-anchor="middle">Hanging bulb</text><text x="260" y="38" fill="#0a0a0b" stroke="#0a0a0b" stroke-width="3.1" stroke-linejoin="round" font-family="Patrick Hand, Comic Sans MS, sans-serif" font-size="11" text-anchor="middle">Knife</text><text x="260" y="38" fill="#f2f2ef" font-family="Patrick Hand, Comic Sans MS, sans-serif" font-size="11" text-anchor="middle">Knife</text><text x="340" y="38" fill="#0a0a0b" stroke="#0a0a0b" stroke-width="3.1" stroke-linejoin="round" font-family="Patrick Hand, Comic Sans MS, sans-serif" font-size="11" text-anchor="middle">Chilli</text><text x="340" y="38" fill="#f2f2ef" font-family="Patrick Hand, Comic Sans MS, sans-serif" font-size="11" text-anchor="middle">Chilli</text><text x="540" y="38" fill="#0a0a0b" stroke="#0a0a0b" stroke-width="3.1" stroke-linejoin="round" font-family="Patrick Hand, Comic Sans MS, sans-serif" font-size="11" text-anchor="middle">Lemon</text><text x="540" y="38" fill="#f2f2ef" font-family="Patrick Hand, Comic Sans MS, sans-serif" font-size="11" text-anchor="middle">Lemon</text><text x="220" y="238" fill="#0a0a0b" stroke="#0a0a0b" stroke-width="3.1" stroke-linejoin="round" font-family="Patrick Hand, Comic Sans MS, sans-serif" font-size="11" text-anchor="middle">Salt jar</text><text x="220" y="238" fill="#f2f2ef" font-family="Patrick Hand, Comic Sans MS, sans-serif" font-size="11" text-anchor="middle">Salt jar</text><text x="340" y="158" fill="#0a0a0b" stroke="#0a0a0b" stroke-width="3.1" stroke-linejoin="round" font-family="Patrick Hand, Comic Sans MS, sans-serif" font-size="11" text-anchor="middle">Sugar jar</text><text x="340" y="158" fill="#f2f2ef" font-family="Patrick Hand, Comic Sans MS, sans-serif" font-size="11" text-anchor="middle">Sugar jar</text><text x="380" y="198" fill="#0a0a0b" stroke="#0a0a0b" stroke-width="3.1" stroke-linejoin="round" font-family="Patrick Hand, Comic Sans MS, sans-serif" font-size="11" text-anchor="middle">Tea cup</text><text x="380" y="198" fill="#f2f2ef" font-family="Patrick Hand, Comic Sans MS, sans-serif" font-size="11" text-anchor="middle">Tea cup</text><text x="300" y="38" fill="#0a0a0b" stroke="#0a0a0b" stroke-width="3.1" stroke-linejoin="round" font-family="Patrick Hand, Comic Sans MS, sans-serif" font-size="11" text-anchor="middle">Maggi packet</text><text x="300" y="38" fill="#f2f2ef" font-family="Patrick Hand, Comic Sans MS, sans-serif" font-size="11" text-anchor="middle">Maggi packet</text><text x="260" y="158" fill="#0a0a0b" stroke="#0a0a0b" stroke-width="3.1" stroke-linejoin="round" font-family="Patrick Hand, Comic Sans MS, sans-serif" font-size="11" text-anchor="middle">Cashew bowl</text><text x="260" y="158" fill="#f2f2ef" font-family="Patrick Hand, Comic Sans MS, sans-serif" font-size="11" text-anchor="middle">Cashew bowl</text></g></svg>