<svg xmlns="http://www.w3.org/2000/svg" width="760" height="480" viewBox="0 0 760 480"><rect x="0" y="0" width="760" height="480" fill="#0a0a0b"/><g transform="translate(40,40)"><rect x="0" y="0" width="680" height="400" fill="#1e1e1f"/><circle cx="192" cy="228" r="1.2" fill="#262627"/><circle cx="224" cy="141" r="1.2" fill="#262627"/><circle cx="652" cy="322" r="1.2" fill="#262627"/><circle cx="560" cy="34" r="1.2" fill="#262627"/><circle cx="356" cy="341" r="1.2" fill="#262627"/><circle cx="296" cy="60" r="1.2" fill="#262627"/><circle cx="254" cy="156" r="1.2" fill="#262627"/><circle cx="47" cy="148" r="1.2" fill="#262627"/><circle cx="468" cy="350" r="1.2" fill="#262627"/><circle cx="640" cy="363" r="1.2" fill="#262627"/><circle cx="518" cy="63" r="1.2" fill="#262627"/><circle cx="18" cy="261" r="1.2" fill="#262627"/><circle cx="467" cy="299" r="1.2" fill="#262627"/><circle cx="651" cy="82" r="1.2" fill="#262627"/><circle cx="462" cy="260" r="1.2" fill="#262627"/><circle cx="634" cy="47" r="1.2" fill="#262627"/><circle cx="222" cy="193" r="1.2" fill="#262627"/><circle cx="56" cy="194" r="1.2" fill="#262627"/><circle cx="140" cy="191" r="1.2" fill="#262627"/><circle cx="7" cy="299" r="1.2" fill="#262627"/><circle cx="59" cy="399" r="1.2" fill="#262627"/><circle cx="286" cy="320" r="1.2" fill="#262627"/><circle cx="146" cy="81" r="1.2" fill="#262627"/><circle cx="112" cy="185" r="1.2" fill="#262627"/><circle cx="597" cy="117" r="1.2" fill="#262627"/><circle cx="294" cy="351" r="1.2" fill="#262627"/><circle cx="291" cy="161" r="1.2" fill="#262627"/><circle cx="99" cy="315" r="1.2" fill="#262627"/><circle cx="640" cy="344" r="1.2" fill="#262627"/><circle cx="96" cy="118" r="1.2" fill="#262627"/><circle cx="102" cy="73" r="1.2" fill="#262627"/><circle cx="431" cy="178" r="1.2" fill="#262627"/><circle cx="178" cy="238" r="1.2" fill="#262627"/><circle cx="82" cy="29" r="1.2" fill="#262627"/><circle cx="470" cy="111" r="1.2" fill="#262627"/><circle cx="559" cy="77" r="1.2" fill="#262627"/><circle cx="319" cy="313" r="1.2" fill="#262627"/><circle cx="45" cy="231" r="1.2" fill="#262627"/><circle cx="660" cy="197" r="1.2" fill="#262627"/><circle cx="653" cy="169" r="1.2" fill="#262627"/><circle cx="45" cy="89" r="1.2" fill="#262627"/><circle cx="8" cy="338" r="1.2" fill="#262627"/><circle cx="532" cy="270" r="1.2" fill="#262627"/><circle cx="657" cy="302" r="1.2" fill="#262627"/><circle cx="577" cy="388" r="1.2" fill="#262627"/><circle cx="149" cy="121" r="1.2" fill="#262627"/><circle cx="357" cy="125" r="1.2" fill="#262627"/><circle cx="556" cy="131" r="1.2" fill="#262627"/><circle cx="293" cy="343" r="1.2" fill="#262627"/><circle cx="590" cy="265" r="1.2" fill="#262627"/><circle cx="516" cy="307" r="1.2" fill="#262627"/><circle cx="46" cy="116" r="1.2" fill="#262627"/><circle cx="524" cy="288" r="1.2" fill="#262627"/><circle cx="440" cy="213" r="1.2" fill="#262627"/><circle cx="28" cy="128" r="1.2" fill="#262627"/><circle cx="207" cy="263" r="1.2" fill="#262627"/><circle cx="27" cy="398" r="1.2" fill="#262627"/><circle cx="630" cy="237" r="1.2" fill="#262627"/><circle cx="13" cy="276" r="1.2" fill="#262627"/><circle cx="415" cy="171" r="1.2" fill="#262627"/><circle cx="411" cy="99" r="1.2" fill="#262627"/><circle cx="213" cy="325" r="1.2" fill="#262627"/><circle cx="30" cy="53" r="1.2" fill="#262627"/><circle cx="65" cy="67" r="1.2" fill="#262627"/><circle cx="536" cy="64" r="1.2" fill="#262627"/><circle cx="384" cy="264" r="1.2" fill="#262627"/><circle cx="655" cy="99" r="1.2" fill="#262627"/><circle cx="84" cy="27" r="1.2" fill="#262627"/><circle cx="594" cy="38" r="1.2" fill="#262627"/><circle cx="203" cy="184" r="1.2" fill="#262627"/><circle cx="161" cy="375" r="1.2" fill="#262627"/><circle cx="425" cy="50" r="1.2" fill="#262627"/><circle cx="33" cy="358" r="1.2" fill="#262627"/><circle cx="449" cy="317" r="1.2" fill="#262627"/><circle cx="38" cy="162" r="1.2" fill="#262627"/><circle cx="454" cy="188" r="1.2" fill="#262627"/><circle cx="233" cy="189" r="1.2" fill="#262627"/><circle cx="270" cy="369" r="1.2" fill="#262627"/><circle cx="273" cy="138" r="1.2" fill="#262627"/><circle cx="289" cy="256" r="1.2" fill="#262627"/><circle cx="207" cy="9" r="1.2" fill="#262627"/><circle cx="340" cy="239" r="1.2" fill="#262627"/><circle cx="269" cy="313" r="1.2" fill="#262627"/><circle cx="131" cy="256" r="1.2" fill="#262627"/><circle cx="237" cy="221" r="1.2" fill="#262627"/><circle cx="268" cy="99" r="1.2" fill="#262627"/><circle cx="56" cy="152" r="1.2" fill="#262627"/><circle cx="591" cy="34" r="1.2" fill="#262627"/><circle cx="210" cy="253" r="1.2" fill="#262627"/><circle cx="532" cy="97" r="1.2" fill="#262627"/><circle cx="478" cy="77" r="1.2" fill="#262627"/><circle cx="663" cy="38" r="1.2" fill="#262627"/><circle cx="153" cy="342" r="1.2" fill="#262627"/><circle cx="322" cy="128" r="1.2" fill="#262627"/><circle cx="370" cy="338" r="1.2" fill="#262627"/><circle cx="228" cy="41" r="1.2" fill="#262627"/><circle cx="646" cy="14" r="1.2" fill="#262627"/><circle cx="600" cy="9" r="1.2" fill="#262627"/><circle cx="151" cy="326" r="1.2" fill="#262627"/><circle cx="359" cy="303" r="1.2" fill="#262627"/><circle cx="146" cy="381" r="1.2" fill="#262627"/><circle cx="137" cy="261" r="1.2" fill="#262627"/><circle cx="364" cy="2" r="1.2" fill="#262627"/><circle cx="441" cy="57" r="1.2" fill="#262627"/><circle cx="276" cy="180" r="1.2" fill="#262627"/><circle cx="644" cy="54" r="1.2" fill="#262627"/><circle cx="370" cy="365" r="1.2" fill="#262627"/><circle cx="254" cy="36" r="1.2" fill="#262627"/><circle cx="447" cy="352" r="1.2" fill="#262627"/><circle cx="147" cy="175" r="1.2" fill="#262627"/><circle cx="421" cy="331" r="1.2" fill="#262627"/><circle cx="314" cy="368" r="1.2" fill="#262627"/><circle cx="264" cy="307" r="1.2" fill="#262627"/><circle cx="167" cy="118" r="1.2" fill="#262627"/><circle cx="566" cy="321" r="1.2" fill="#262627"/><circle cx="210" cy="55" r="1.2" fill="#262627"/><circle cx="653" cy="353" r="1.2" fill="#262627"/><circle cx="331" cy="394" r="1.2" fill="#262627"/><circle cx="238" cy="273" r="1.2" fill="#262627"/><circle cx="366" cy="348" r="1.2" fill="#262627"/><circle cx="106" cy="358" r="1.2" fill="#262627"/><circle cx="573" cy="214" r="1.2" fill="#262627"/><circle cx="643" cy="158" r="1.2" fill="#262627"/><circle cx="576" cy="399" r="1.2" fill="#262627"/><circle cx="616" cy="49" r="1.2" fill="#262627"/><circle cx="301" cy="254" r="1.2" fill="#262627"/><circle cx="598" cy="342" r="1.2" fill="#262627"/><circle cx="664" cy="147" r="1.2" fill="#262627"/><circle cx="669" cy="385" r="1.2" fill="#262627"/><circle cx="28" cy="391" r="1.2" fill="#262627"/><circle cx="137" cy="158" r="1.2" fill="#262627"/><circle cx="473" cy="184" r="1.2" fill="#262627"/><circle cx="166" cy="53" r="1.2" fill="#262627"/><circle cx="49" cy="33" r="1.2" fill="#262627"/><circle cx="342" cy="73" r="1.2" fill="#262627"/><circle cx="18" cy="125" r="1.2" fill="#262627"/><circle cx="646" cy="229" r="1.2" fill="#262627"/><circle cx="201" cy="183" r="1.2" fill="#262627"/><circle cx="560" cy="9" r="1.2" fill="#262627"/><circle cx="1" cy="308" r="1.2" fill="#262627"/><circle cx="423" cy="171" r="1.2" fill="#262627"/><circle cx="638" cy="300" r="1.2" fill="#262627"/><circle cx="17" cy="250" r="1.2" fill="#262627"/><circle cx="344" cy="331" r="1.2" fill="#262627"/><circle cx="43" cy="170" r="1.2" fill="#262627"/><circle cx="135" cy="243" r="1.2" fill="#262627"/><circle cx="188" cy="94" r="1.2" fill="#262627"/><circle cx="381" cy="218" r="1.2" fill="#262627"/><circle cx="351" cy="75" r="1.2" fill="#262627"/><circle cx="177" cy="373" r="1.2" fill="#262627"/><circle cx="231" cy="36" r="1.2" fill="#262627"/><circle cx="519" cy="206" r="1.2" fill="#262627"/><circle cx="20" cy="91" r="1.2" fill="#262627"/><circle cx="452" cy="108" r="1.2" fill="#262627"/><circle cx="353" cy="52" r="1.2" fill="#262627"/><circle cx="617" cy="125" r="1.2" fill="#262627"/><circle cx="354" cy="170" r="1.2" fill="#262627"/><circle cx="615" cy="366" r="1.2" fill="#262627"/><circle cx="408" cy="306" r="1.2" fill="#262627"/><circle cx="426" cy="85" r="1.2" fill="#262627"/><circle cx="177" cy="192" r="1.2" fill="#262627"/><circle cx="81" cy="340" r="1.2" fill="#262627"/><circle cx="163" cy="179" r="1.2" fill="#262627"/><circle cx="10" cy="72" r="1.2" fill="#262627"/><circle cx="392" cy="163" r="1.2" fill="#262627"/><circle cx="72" cy="227" r="1.2" fill="#262627"/><circle cx="545" cy="262" r="1.2" fill="#262627"/><circle cx="392" cy="147" r="1.2" fill="#262627"/><circle cx="266" cy="142" r="1.2" fill="#262627"/><circle cx="200" cy="7" r="1.2" fill="#262627"/><circle cx="142" cy="320" r="1.2" fill="#262627"/><circle cx="629" cy="366" r="1.2" fill="#262627"/><circle cx="557" cy="282" r="1.2" fill="#262627"/><circle cx="258" cy="34" r="1.2" fill="#262627"/><circle cx="539" cy="74" r="1.2" fill="#262627"/><circle cx="344" cy="72" r="1.2" fill="#262627"/><circle cx="679" cy="211" r="1.2" fill="#262627"/><circle cx="189" cy="70" r="1.2" fill="#262627"/><circle cx="666" cy="390" r="1.2" fill="#262627"/><circle cx="364" cy="30" r="1.2" fill="#262627"/><circle cx="448" cy="118" r="1.2" fill="#262627"/><circle cx="442" cy="16" r="1.2" fill="#262627"/><circle cx="83" cy="49" r="1.2" fill="#262627"/><circle cx="543" cy="121" r="1.2" fill="#262627"/><circle cx="344" cy="83" r="1.2" fill="#262627"/><circle cx="241" cy="287" r="1.2" fill="#262627"/><circle cx="579" cy="398" r="1.2" fill="#262627"/><circle cx="348" cy="297" r="1.2" fill="#262627"/><circle cx="321" cy="29" r="1.2" fill="#262627"/><circle cx="500" cy="102" r="1.2" fill="#262627"/><circle cx="456" cy="20" r="1.2" fill="#262627"/><circle cx="447" cy="111" r="1.2" fill="#262627"/><circle cx="117" cy="336" r="1.2" fill="#262627"/><circle cx="447" cy="129" r="1.2" fill="#262627"/><circle cx="108" cy="180" r="1.2" fill="#262627"/><circle cx="107" cy="300" r="1.2" fill="#262627"/><circle cx="476" cy="233" r="1.2" fill="#262627"/><circle cx="579" cy="231" r="1.2" fill="#262627"/><circle cx="412" cy="189" r="1.2" fill="#262627"/><circle cx="510" cy="138" r="1.2" fill="#262627"/><circle cx="501" cy="317" r="1.2" fill="#262627"/><circle cx="628" cy="218" r="1.2" fill="#262627"/><circle cx="425" cy="75" r="1.2" fill="#262627"/><circle cx="479" cy="347" r="1.2" fill="#262627"/><circle cx="597" cy="138" r="1.2" fill="#262627"/><circle cx="110" cy="304" r="1.2" fill="#262627"/><circle cx="274" cy="319" r="1.2" fill="#262627"/><circle cx="287" cy="106" r="1.2" fill="#262627"/><circle cx="531" cy="161" r="1.2" fill="#262627"/><circle cx="341" cy="367" r="1.2" fill="#262627"/><circle cx="282" cy="282" r="1.2" fill="#262627"/><circle cx="4" cy="237" r="1.2" fill="#262627"/><circle cx="654" cy="260" r="1.2" fill="#262627"/><circle cx="547" cy="203" r="1.2" fill="#262627"/><circle cx="11" cy="68" r="1.2" fill="#262627"/><circle cx="672" cy="324" r="1.2" fill="#262627"/><circle cx="612" cy="73" r="1.2" fill="#262627"/><circle cx="528" cy="157" r="1.2" fill="#262627"/><circle cx="431" cy="277" r="1.2" fill="#262627"/><circle cx="539" cy="210" r="1.2" fill="#262627"/><circle cx="38" cy="32" r="1.2" fill="#262627"/><circle cx="503" cy="102" r="1.2" fill="#262627"/><circle cx="640" cy="187" r="1.2" fill="#262627"/><circle cx="4" cy="83" r="1.2" fill="#262627"/><circle cx="678" cy="36" r="1.2" fill="#262627"/><circle cx="527" cy="325" r="1.2" fill="#262627"/><circle cx="520" cy="387" r="1.2" fill="#262627"/><circle cx="445" cy="331" r="1.2" fill="#262627"/><circle cx="445" cy="284" r="1.2" fill="#262627"/><circle cx="188" cy="34" r="1.2" fill="#262627"/><circle cx="666" cy="263" r="1.2" fill="#262627"/><circle cx="365" cy="294" r="1.2" fill="#262627"/><circle cx="326" cy="158" r="1.2" fill="#262627"/><circle cx="517" cy="85" r="1.2" fill="#262627"/><circle cx="78" cy="23" r="1.2" fill="#262627"/><circle cx="391" cy="36" r="1.2" fill="#262627"/><circle cx="308" cy="44" r="1.2" fill="#262627"/><circle cx="246" cy="265" r="1.2" fill="#262627"/><circle cx="197" cy="295" r="1.2" fill="#262627"/><circle cx="180" cy="161" r="1.2" fill="#262627"/><circle cx="533" cy="116" r="1.2" fill="#262627"/><circle cx="167" cy="74" r="1.2" fill="#262627"/><circle cx="300" cy="297" r="1.2" fill="#262627"/><circle cx="161" cy="152" r="1.2" fill="#262627"/><circle cx="549" cy="369" r="1.2" fill="#262627"/><circle cx="576" cy="7" r="1.2" fill="#262627"/><circle cx="435" cy="252" r="1.2" fill="#262627"/><circle cx="504" cy="38" r="1.2" fill="#262627"/><circle cx="490" cy="16" r="1.2" fill="#262627"/><circle cx="193" cy="227" r="1.2" fill="#262627"/><circle cx="71" cy="100" r="1.2" fill="#262627"/><circle cx="154" cy="100" r="1.2" fill="#262627"/><circle cx="103" cy="312" r="1.2" fill="#262627"/><circle cx="391" cy="219" r="1.2" fill="#262627"/><circle cx="432" cy="388" r="1.2" fill="#262627"/><circle cx="334" cy="119" r="1.2" fill="#262627"/><circle cx="350" cy="340" r="1.2" fill="#262627"/><circle cx="28" cy="153" r="1.2" fill="#262627"/><circle cx="429" cy="173" r="1.2" fill="#262627"/><circle cx="35" cy="45" r="1.2" fill="#262627"/><circle cx="516" cy="33" r="1.2" fill="#262627"/><circle cx="205" cy="160" r="1.2" fill="#262627"/><circle cx="593" cy="338" r="1.2" fill="#262627"/><circle cx="133" cy="69" r="1.2" fill="#262627"/><circle cx="219" cy="53" r="1.2" fill="#262627"/><circle cx="115" cy="50" r="1.2" fill="#262627"/><circle cx="75" cy="310" r="1.2" fill="#262627"/><circle cx="309" cy="397" r="1.2" fill="#262627"/><circle cx="245" cy="255" r="1.2" fill="#262627"/><circle cx="157" cy="30" r="1.2" fill="#262627"/><circle cx="13" cy="50" r="1.2" fill="#262627"/><circle cx="465" cy="110" r="1.2" fill="#262627"/><circle cx="13" cy="18" r="1.2" fill="#262627"/><circle cx="258" cy="134" r="1.2" fill="#262627"/><circle cx="196" cy="176" r="1.2" fill="#262627"/><circle cx="195" cy="384" r="1.2" fill="#262627"/><circle cx="311" cy="322" r="1.2" fill="#262627"/><circle cx="238" cy="166" r="1.2" fill="#262627"/><circle cx="21" cy="241" r="1.2" fill="#262627"/><circle cx="363" cy="106" r="1.2" fill="#262627"/><circle cx="128" cy="160" r="1.2" fill="#262627"/><circle cx="18" cy="346" r="1.2" fill="#262627"/><circle cx="464" cy="283" r="1.2" fill="#262627"/><circle cx="382" cy="90" r="1.2" fill="#262627"/><circle cx="602" cy="144" r="1.2" fill="#262627"/><circle cx="594" cy="79" r="1.2" fill="#262627"/><circle cx="460" cy="376" r="1.2" fill="#262627"/><circle cx="550" cy="245" r="1.2" fill="#262627"/><circle cx="173" cy="32" r="1.2" fill="#262627"/><circle cx="92" cy="291" r="1.2" fill="#262627"/><circle cx="112" cy="41" r="1.2" fill="#262627"/><circle cx="153" cy="206" r="1.2" fill="#262627"/><circle cx="191" cy="373" r="1.2" fill="#262627"/><circle cx="61" cy="166" r="1.2" fill="#262627"/><circle cx="68" cy="258" r="1.2" fill="#262627"/><circle cx="647" cy="146" r="1.2" fill="#262627"/><circle cx="322" cy="235" r="1.2" fill="#262627"/><circle cx="515" cy="15" r="1.2" fill="#262627"/><circle cx="531" cy="182" r="1.2" fill="#262627"/><circle cx="411" cy="293" r="1.2" fill="#262627"/><circle cx="110" cy="98" r="1.2" fill="#262627"/><circle cx="579" cy="199" r="1.2" fill="#262627"/><circle cx="566" cy="115" r="1.2" fill="#262627"/><circle cx="47" cy="333" r="1.2" fill="#262627"/><circle cx="135" cy="322" r="1.2" fill="#262627"/><circle cx="483" cy="373" r="1.2" fill="#262627"/><circle cx="611" cy="165" r="1.2" fill="#262627"/><circle cx="161" cy="205" r="1.2" fill="#262627"/><circle cx="459" cy="273" r="1.2" fill="#262627"/><circle cx="375" cy="85" r="1.2" fill="#262627"/><circle cx="154" cy="322" r="1.2" fill="#262627"/><circle cx="427" cy="246" r="1.2" fill="#262627"/><circle cx="591" cy="289" r="1.2" fill="#262627"/><circle cx="200" cy="80" r="1.2" fill="#262627"/><circle cx="409" cy="381" r="1.2" fill="#262627"/><circle cx="558" cy="302" r="1.2" fill="#262627"/><circle cx="431" cy="328" r="1.2" fill="#262627"/><circle cx="200" cy="4" r="1.2" fill="#262627"/><circle cx="185" cy="226" r="1.2" fill="#262627"/><circle cx="569" cy="61" r="1.2" fill="#262627"/><circle cx="334" cy="340" r="1.2" fill="#262627"/><circle cx="485" cy="241" r="1.2" fill="#262627"/><circle cx="628" cy="344" r="1.2" fill="#262627"/><circle cx="485" cy="103" r="1.2" fill="#262627"/><circle cx="124" cy="396" r="1.2" fill="#262627"/><circle cx="228" cy="359" r="1.2" fill="#262627"/><circle cx="176" cy="163" r="1.2" fill="#262627"/><circle cx="125" cy="239" r="1.2" fill="#262627"/><circle cx="409" cy="161" r="1.2" fill="#262627"/><circle cx="188" cy="21" r="1.2" fill="#262627"/><circle cx="391" cy="352" r="1.2" fill="#262627"/><circle cx="35" cy="195" r="1.2" fill="#262627"/><circle cx="585" cy="139" r="1.2" fill="#262627"/><circle cx="276" cy="356" r="1.2" fill="#262627"/><circle cx="111" cy="98" r="1.2" fill="#262627"/><circle cx="406" cy="236" r="1.2" fill="#262627"/><circle cx="162" cy="115" r="1.2" fill="#262627"/><circle cx="49" cy="122" r="1.2" fill="#262627"/><circle cx="530" cy="325" r="1.2" fill="#262627"/><circle cx="152" cy="118" r="1.2" fill="#262627"/><circle cx="367" cy="218" r="1.2" fill="#262627"/><circle cx="509" cy="61" r="1.2" fill="#262627"/><circle cx="334" cy="371" r="1.2" fill="#262627"/><circle cx="260" cy="37" r="1.2" fill="#262627"/><circle cx="366" cy="76" r="1.2" fill="#262627"/><circle cx="170" cy="323" r="1.2" fill="#262627"/><circle cx="15" cy="41" r="1.2" fill="#262627"/><circle cx="516" cy="393" r="1.2" fill="#262627"/><circle cx="680" cy="169" r="1.2" fill="#262627"/><circle cx="58" cy="225" r="1.2" fill="#262627"/><circle cx="666" cy="315" r="1.2" fill="#262627"/><circle cx="582" cy="58" r="1.2" fill="#262627"/><circle cx="264" cy="240" r="1.2" fill="#262627"/><circle cx="590" cy="84" r="1.2" fill="#262627"/><circle cx="318" cy="8" r="1.2" fill="#262627"/><circle cx="279" cy="246" r="1.2" fill="#262627"/><circle cx="74" cy="345" r="1.2" fill="#262627"/><circle cx="175" cy="66" r="1.2" fill="#262627"/><circle cx="242" cy="55" r="1.2" fill="#262627"/><circle cx="147" cy="50" r="1.2" fill="#262627"/><circle cx="563" cy="25" r="1.2" fill="#262627"/><circle cx="525" cy="76" r="1.2" fill="#262627"/><circle cx="284" cy="86" r="1.2" fill="#262627"/><circle cx="472" cy="194" r="1.2" fill="#262627"/><circle cx="211" cy="129" r="1.2" fill="#262627"/><circle cx="495" cy="271" r="1.2" fill="#262627"/><circle cx="410" cy="92" r="1.2" fill="#262627"/><circle cx="178" cy="183" r="1.2" fill="#262627"/><circle cx="464" cy="345" r="1.2" fill="#262627"/><circle cx="42" cy="379" r="1.2" fill="#262627"/><circle cx="266" cy="100" r="1.2" fill="#262627"/><circle cx="42" cy="329" r="1.2" fill="#262627"/><circle cx="190" cy="198" r="1.2" fill="#262627"/><circle cx="265" cy="270" r="1.2" fill="#262627"/><circle cx="497" cy="219" r="1.2" fill="#262627"/><circle cx="81" cy="280" r="1.2" fill="#262627"/><circle cx="485" cy="263" r="1.2" fill="#262627"/><circle cx="371" cy="213" r="1.2" fill="#262627"/><circle cx="388" cy="374" r="1.2" fill="#262627"/><circle cx="72" cy="300" r="1.2" fill="#262627"/><circle cx="159" cy="257" r="1.2" fill="#262627"/><circle cx="538" cy="13" r="1.2" fill="#262627"/><circle cx="39" cy="338" r="1.2" fill="#262627"/><circle cx="375" cy="137" r="1.2" fill="#262627"/><circle cx="581" cy="387" r="1.2" fill="#262627"/><circle cx="457" cy="238" r="1.2" fill="#262627"/><circle cx="211" cy="369" r="1.2" fill="#262627"/><circle cx="171" cy="171" r="1.2" fill="#262627"/><circle cx="573" cy="358" r="1.2" fill="#262627"/><circle cx="154" cy="23" r="1.2" fill="#262627"/><circle cx="40" cy="74" r="1.2" fill="#262627"/><circle cx="124" cy="217" r="1.2" fill="#262627"/><circle cx="258" cy="241" r="1.2" fill="#262627"/><circle cx="550" cy="154" r="1.2" fill="#262627"/><circle cx="646" cy="373" r="1.2" fill="#262627"/><circle cx="426" cy="299" r="1.2" fill="#262627"/><circle cx="76" cy="155" r="1.2" fill="#262627"/><circle cx="172" cy="268" r="1.2" fill="#262627"/><circle cx="273" cy="164" r="1.2" fill="#262627"/><circle cx="575" cy="227" r="1.2" fill="#262627"/><circle cx="135" cy="311" r="1.2" fill="#262627"/><circle cx="428" cy="337" r="1.2" fill="#262627"/><circle cx="424" cy="31" r="1.2" fill="#262627"/><circle cx="535" cy="81" r="1.2" fill="#262627"/><circle cx="40" cy="258" r="1.2" fill="#262627"/><circle cx="320" cy="172" r="1.2" fill="#262627"/><circle cx="288" cy="52" r="1.2" fill="#262627"/><circle cx="618" cy="274" r="1.2" fill="#262627"/><circle cx="48" cy="93" r="1.2" fill="#262627"/><circle cx="151" cy="19" r="1.2" fill="#262627"/><circle cx="130" cy="251" r="1.2" fill="#262627"/><circle cx="476" cy="234" r="1.2" fill="#262627"/><circle cx="562" cy="215" r="1.2" fill="#262627"/><circle cx="473" cy="86" r="1.2" fill="#262627"/><circle cx="166" cy="258" r="1.2" fill="#262627"/><circle cx="667" cy="152" r="1.2" fill="#262627"/><circle cx="211" cy="329" r="1.2" fill="#262627"/><circle cx="574" cy="5" r="1.2" fill="#262627"/><circle cx="280" cy="373" r="1.2" fill="#262627"/><circle cx="555" cy="380" r="1.2" fill="#262627"/><circle cx="162" cy="166" r="1.2" fill="#262627"/><circle cx="68" cy="30" r="1.2" fill="#262627"/><circle cx="520" cy="179" r="1.2" fill="#262627"/><circle cx="655" cy="32" r="1.2" fill="#262627"/><circle cx="103" cy="267" r="1.2" fill="#262627"/><circle cx="349" cy="128" r="1.2" fill="#262627"/><circle cx="15" cy="354" r="1.2" fill="#262627"/><circle cx="607" cy="386" r="1.2" fill="#262627"/><circle cx="609" cy="89" r="1.2" fill="#262627"/><circle cx="391" cy="53" r="1.2" fill="#262627"/><circle cx="622" cy="11" r="1.2" fill="#262627"/><circle cx="661" cy="363" r="1.2" fill="#262627"/><circle cx="301" cy="166" r="1.2" fill="#262627"/><circle cx="270" cy="300" r="1.2" fill="#262627"/><circle cx="94" cy="317" r="1.2" fill="#262627"/><circle cx="352" cy="47" r="1.2" fill="#262627"/><circle cx="72" cy="259" r="1.2" fill="#262627"/><circle cx="502" cy="114" r="1.2" fill="#262627"/><circle cx="227" cy="294" r="1.2" fill="#262627"/><circle cx="382" cy="258" r="1.2" fill="#262627"/><circle cx="434" cy="192" r="1.2" fill="#262627"/><circle cx="442" cy="140" r="1.2" fill="#262627"/><circle cx="170" cy="398" r="1.2" fill="#262627"/><circle cx="50" cy="107" r="1.2" fill="#262627"/><circle cx="464" cy="337" r="1.2" fill="#262627"/><circle cx="617" cy="388" r="1.2" fill="#262627"/><circle cx="379" cy="146" r="1.2" fill="#262627"/><circle cx="87" cy="199" r="1.2" fill="#262627"/><circle cx="296" cy="309" r="1.2" fill="#262627"/><circle cx="269" cy="105" r="1.2" fill="#262627"/><circle cx="325" cy="193" r="1.2" fill="#262627"/><circle cx="478" cy="357" r="1.2" fill="#262627"/><circle cx="590" cy="251" r="1.2" fill="#262627"/><circle cx="380" cy="147" r="1.2" fill="#262627"/><circle cx="649" cy="47" r="1.2" fill="#262627"/><circle cx="62" cy="243" r="1.2" fill="#262627"/><circle cx="79" cy="225" r="1.2" fill="#262627"/><circle cx="54" cy="27" r="1.2" fill="#262627"/><circle cx="160" cy="345" r="1.2" fill="#262627"/><circle cx="635" cy="68" r="1.2" fill="#262627"/><circle cx="247" cy="207" r="1.2" fill="#262627"/><circle cx="649" cy="261" r="1.2" fill="#262627"/><circle cx="507" cy="36" r="1.2" fill="#262627"/><circle cx="570" cy="114" r="1.2" fill="#262627"/><circle cx="664" cy="274" r="1.2" fill="#262627"/><circle cx="617" cy="1" r="1.2" fill="#262627"/><circle cx="140" cy="280" r="1.2" fill="#262627"/><circle cx="405" cy="34" r="1.2" fill="#262627"/><circle cx="194" cy="343" r="1.2" fill="#262627"/><circle cx="387" cy="337" r="1.2" fill="#262627"/><circle cx="65" cy="364" r="1.2" fill="#262627"/><circle cx="555" cy="50" r="1.2" fill="#262627"/><circle cx="225" cy="261" r="1.2" fill="#262627"/><circle cx="220" cy="2" r="1.2" fill="#262627"/><circle cx="430" cy="354" r="1.2" fill="#262627"/><circle cx="250" cy="261" r="1.2" fill="#262627"/><circle cx="606" cy="138" r="1.2" fill="#262627"/><circle cx="621" cy="157" r="1.2" fill="#262627"/><circle cx="224" cy="272" r="1.2" fill="#262627"/><circle cx="578" cy="258" r="1.2" fill="#262627"/><circle cx="586" cy="292" r="1.2" fill="#262627"/><circle cx="286" cy="359" r="1.2" fill="#262627"/><circle cx="36" cy="205" r="1.2" fill="#262627"/><circle cx="534" cy="114" r="1.2" fill="#262627"/><circle cx="33" cy="393" r="1.2" fill="#262627"/><circle cx="371" cy="236" r="1.2" fill="#262627"/><circle cx="229" cy="363" r="1.2" fill="#262627"/><circle cx="573" cy="330" r="1.2" fill="#262627"/><circle cx="566" cy="83" r="1.2" fill="#262627"/><circle cx="238" cy="115" r="1.2" fill="#262627"/><circle cx="115" cy="84" r="1.2" fill="#262627"/><circle cx="176" cy="230" r="1.2" fill="#262627"/><circle cx="230" cy="10" r="1.2" fill="#262627"/><circle cx="320" cy="128" r="1.2" fill="#262627"/><circle cx="329" cy="279" r="1.2" fill="#262627"/><circle cx="417" cy="146" r="1.2" fill="#262627"/><circle cx="508" cy="43" r="1.2" fill="#262627"/><circle cx="316" cy="275" r="1.2" fill="#262627"/><circle cx="581" cy="118" r="1.2" fill="#262627"/><circle cx="247" cy="120" r="1.2" fill="#262627"/><circle cx="309" cy="96" r="1.2" fill="#262627"/><circle cx="144" cy="372" r="1.2" fill="#262627"/><circle cx="365" cy="170" r="1.2" fill="#262627"/><circle cx="263" cy="265" r="1.2" fill="#262627"/><circle cx="673" cy="245" r="1.2" fill="#262627"/><circle cx="217" cy="259" r="1.2" fill="#262627"/><circle cx="520" cy="86" r="1.2" fill="#262627"/><circle cx="11" cy="159" r="1.2" fill="#262627"/><circle cx="355" cy="158" r="1.2" fill="#262627"/><circle cx="58" cy="140" r="1.2" fill="#262627"/><rect x="4" y="4" width="672" height="392" fill="none" stroke="#bdbdb8" stroke-width="2" stroke-dasharray="10 8"/><rect x="-6" y="-6" width="692" height="412" fill="none" stroke="#3a3a3d" stroke-width="6" stroke-dasharray="4 10"/><rect x="-15" y="160" width="17" height="80" fill="#1e1e1f"/><rect x="-15" y="160" width="17" height="80" fill="none" stroke="#8a8a85" stroke-width="1" stroke-dasharray="3 4"/><text x="-18" y="154" fill="#bdbdb8" font-family="Patrick Hand, Comic Sans MS, sans-serif" font-size="15" text-anchor="start">→ Play zone</text><rect x="280" y="398" width="80" height="17" fill="#1e1e1f"/><rect x="280" y="398" width="80" height="17" fill="none" stroke="#8a8a85" stroke-width="1" stroke-dasharray="3 4"/><text x="320.0" y="432" fill="#bdbdb8" font-family="Patrick Hand, Comic Sans MS, sans-serif" font-size="15" text-anchor="middle">→ Pool deck</text><g transform="translate(340.0,40.0) rotate(0) translate(-60.0,-40.0)"><rect x="0.0" y="0.0" width="120.0" height="80.0" rx="2.0" fill="#26262a" stroke="#bdbdb8" stroke-width="2.00"/><line x1="30.0" y1="0.0" x2="30.0" y2="80.0" stroke="#5a5a5d" stroke-width="1.00" stroke-linecap="round"/><line x1="60.0" y1="0.0" x2="60.0" y2="80.0" stroke="#5a5a5d" stroke-width="1.00" stroke-linecap="round"/><line x1="90.0" y1="0.0" x2="90.0" y2="80.0" stroke="#5a5a5d" stroke-width="1.00" stroke-linecap="round"/><line x1="0.0" y1="26.4" x2="120.0" y2="26.4" stroke="#5a5a5d" stroke-width="1.00" stroke-linecap="round"/><line x1="0.0" y1="52.8" x2="120.0" y2="52.8" stroke="#5a5a5d" stroke-width="1.00" stroke-linecap="round"/></g><g transform="translate(220.0,40.0) rotate(0) translate(-60.0,-40.0)"><rect x="0.0" y="0.0" width="120.0" height="80.0" rx="2.0" fill="#26262a" stroke="#bdbdb8" stroke-width="2.00"/><line x1="30.0" y1="0.0" x2="30.0" y2="80.0" stroke="#5a5a5d" stroke-width="1.00" stroke-linecap="round"/><line x1="60.0" y1="0.0" x2="60.0" y2="80.0" stroke="#5a5a5d" stroke-width="1.00" stroke-linecap="round"/><line x1="90.0" y1="0.0" x2="90.0" y2="80.0" stroke="#5a5a5d" stroke-width="1.00" stroke-linecap="round"/><line x1="0.0" y1="26.4" x2="120.0" y2="26.4" stroke="#5a5a5d" stroke-width="1.00" stroke-linecap="round"/><line x1="0.0" y1="52.8" x2="120.0" y2="52.8" stroke="#5a5a5d" stroke-width="1.00" stroke-linecap="round"/></g><g transform="translate(460.0,40.0) rotate(0) translate(-60.0,-40.0)"><rect x="0.0" y="0.0" width="120.0" height="80.0" rx="2.0" fill="#26262a" stroke="#bdbdb8" stroke-width="2.00"/><line x1="30.0" y1="0.0" x2="30.0" y2="80.0" stroke="#5a5a5d" stroke-width="1.00" stroke-linecap="round"/><line x1="60.0" y1="0.0" x2="60.0" y2="80.0" stroke="#5a5a5d" stroke-width="1.00" stroke-linecap="round"/><line x1="90.0" y1="0.0" x2="90.0" y2="80.0" stroke="#5a5a5d" stroke-width="1.00" stroke-linecap="round"/><line x1="0.0" y1="26.4" x2="120.0" y2="26.4" stroke="#5a5a5d" stroke-width="1.00" stroke-linecap="round"/><line x1="0.0" y1="52.8" x2="120.0" y2="52.8" stroke="#5a5a5d" stroke-width="1.00" stroke-linecap="round"/></g><g transform="translate(640.0,40.0) rotate(0) translate(-40.0,-40.0)"><circle cx="40.0" cy="40.0" r="33.6" fill="#5a5a5d" stroke="#bdbdb8" stroke-width="2.00"/><circle cx="40.0" cy="40.0" r="12.8" fill="#3a3a3d" stroke="#8a8a85" stroke-width="2.00"/><circle cx="40.0" cy="40.0" r="24.0" fill="none" stroke="#3a3a3d" stroke-width="1.00"/></g><g transform="translate(560.0,200.0) rotate(90) translate(-40.0,-120.0)"><rect x="16.0" y="0.0" width="48.0" height="240.0" rx="8.0" fill="#bdbdb8" stroke="#8a8a85" stroke-width="2.00"/><rect x="25.6" y="4.8" width="28.8" height="230.4" rx="6.0" fill="#d8d8d2" stroke="none"/><rect x="8.0" y="0.0" width="64.0" height="24.0" rx="2.0" fill="#5a5a5d" stroke="#bdbdb8" stroke-width="2.00"/></g><g transform="translate(40.0,40.0) rotate(0) translate(-40.0,-40.0)"><rect x="0.0" y="0.0" width="80.0" height="80.0" rx="2.0" fill="#0b0b0c" stroke="#bdbdb8" stroke-width="3.00"/><line x1="40.0" y1="6.4" x2="40.0" y2="73.6" stroke="#8a8a85" stroke-width="2.00" stroke-linecap="round"/><polygon points="20.0,33.6 28.0,22.4 36.0,33.6" fill="#f2f2ef" stroke="none" stroke-linejoin="round"/><polygon points="44.0,46.4 52.0,57.6 60.0,46.4" fill="#f2f2ef" stroke="none" stroke-linejoin="round"/></g><g transform="translate(20.0,380.0) rotate(0) translate(-20.0,-20.0)"><circle cx="20.0" cy="20.0" r="12.0" fill="#5a5a5d" stroke="#bdbdb8" stroke-width="2.00"/><circle cx="20.0" cy="20.0" r="8.0" fill="#3a3a3d" stroke="#8a8a85" stroke-width="1.00"/></g><text x="340" y="76" fill="#0a0a0b" stroke="#0a0a0b" stroke-width="3.1" stroke-linejoin="round" font-family="Patrick Hand, Comic Sans MS, sans-serif" font-size="11" text-anchor="middle">Solar panel</text><text x="340" y="76" fill="#f2f2ef" font-family="Patrick Hand, Comic Sans MS, sans-serif" font-size="11" text-anchor="middle">Solar panel</text><text x="220" y="76" fill="#0a0a0b" stroke="#0a0a0b" stroke-width="3.1" stroke-linejoin="round" font-family="Patrick Hand, Comic Sans MS, sans-serif" font-size="11" text-anchor="middle">Solar panel</text><text x="220" y="76" fill="#f2f2ef" font-family="Patrick Hand, Comic Sans MS, sans-serif" font-size="11" text-anchor="middle">Solar panel</text><text x="460" y="76" fill="#0a0a0b" stroke="#0a0a0b" stroke-width="3.1" stroke-linejoin="round" font-family="Patrick Hand, Comic Sans MS, sans-serif" font-size="11" text-anchor="middle">Solar panel</text><text x="460" y="76" fill="#f2f2ef" font-family="Patrick Hand, Comic Sans MS, sans-serif" font-size="11" text-anchor="middle">Solar panel</text><text x="640" y="76" fill="#0a0a0b" stroke="#0a0a0b" stroke-width="3.1" stroke-linejoin="round" font-family="Patrick Hand, Comic Sans MS, sans-serif" font-size="11" text-anchor="middle">Water tank</text><text x="640" y="76" fill="#f2f2ef" font-family="Patrick Hand, Comic Sans MS, sans-serif" font-size="11" text-anchor="middle">Water tank</text><text x="560" y="236" fill="#0a0a0b" stroke="#0a0a0b" stroke-width="3.1" stroke-linejoin="round" font-family="Patrick Hand, Comic Sans MS, sans-serif" font-size="11" text-anchor="middle">Slide (roof to pool)</text><text x="560" y="236" fill="#f2f2ef" font-family="Patrick Hand, Comic Sans MS, sans-serif" font-size="11" text-anchor="middle">Slide (roof to pool)</text><text x="40" y="76" fill="#0a0a0b" stroke="#0a0a0b" stroke-width="3.1" stroke-linejoin="round" font-family="Patrick Hand, Comic Sans MS, sans-serif" font-size="11" text-anchor="middle">Lift</text><text x="40" y="76" fill="#f2f2ef" font-family="Patrick Hand, Comic Sans MS, sans-serif" font-size="11" text-anchor="middle">Lift</text><text x="20" y="396" fill="#0a0a0b" stroke="#0a0a0b" stroke-width="3.1" stroke-linejoin="round" font-family="Patrick Hand, Comic Sans MS, sans-serif" font-size="11" text-anchor="middle">Dustbin</text><text x="20" y="396" fill="#f2f2ef" font-family="Patrick Hand, Comic Sans MS, sans-serif" font-size="11" text-anchor="middle">Dustbin</text></g></svg>