<svg xmlns="http://www.w3.org/2000/svg" width="880" height="360" viewBox="0 0 880 360"><rect x="0" y="0" width="880" height="360" fill="#0a0a0b"/><g transform="translate(40,40)"><rect x="0" y="0" width="800" height="280" fill="#1a1a1c"/><line x1="0" y1="0" x2="0" y2="280" stroke="#242427" stroke-width="1"/><line x1="40" y1="0" x2="40" y2="280" stroke="#242427" stroke-width="1"/><line x1="80" y1="0" x2="80" y2="280" stroke="#242427" stroke-width="1"/><line x1="120" y1="0" x2="120" y2="280" stroke="#242427" stroke-width="1"/><line x1="160" y1="0" x2="160" y2="280" stroke="#242427" stroke-width="1"/><line x1="200" y1="0" x2="200" y2="280" stroke="#242427" stroke-width="1"/><line x1="240" y1="0" x2="240" y2="280" stroke="#242427" stroke-width="1"/><line x1="280" y1="0" x2="280" y2="280" stroke="#242427" stroke-width="1"/><line x1="320" y1="0" x2="320" y2="280" stroke="#242427" stroke-width="1"/><line x1="360" y1="0" x2="360" y2="280" stroke="#242427" stroke-width="1"/><line x1="400" y1="0" x2="400" y2="280" stroke="#242427" stroke-width="1"/><line x1="440" y1="0" x2="440" y2="280" stroke="#242427" stroke-width="1"/><line x1="480" y1="0" x2="480" y2="280" stroke="#242427" stroke-width="1"/><line x1="520" y1="0" x2="520" y2="280" stroke="#242427" stroke-width="1"/><line x1="560" y1="0" x2="560" y2="280" stroke="#242427" stroke-width="1"/><line x1="600" y1="0" x2="600" y2="280" stroke="#242427" stroke-width="1"/><line x1="640" y1="0" x2="640" y2="280" stroke="#242427" stroke-width="1"/><line x1="680" y1="0" x2="680" y2="280" stroke="#242427" stroke-width="1"/><line x1="720" y1="0" x2="720" y2="280" stroke="#242427" stroke-width="1"/><line x1="760" y1="0" x2="760" y2="280" stroke="#242427" stroke-width="1"/><line x1="800" y1="0" x2="800" y2="280" stroke="#242427" stroke-width="1"/><line x1="0" y1="0" x2="800" y2="0" stroke="#242427" stroke-width="1"/><line x1="0" y1="40" x2="800" y2="40" stroke="#242427" stroke-width="1"/><line x1="0" y1="80" x2="800" y2="80" stroke="#242427" stroke-width="1"/><line x1="0" y1="120" x2="800" y2="120" stroke="#242427" stroke-width="1"/><line x1="0" y1="160" x2="800" y2="160" stroke="#242427" stroke-width="1"/><line x1="0" y1="200" x2="800" y2="200" stroke="#242427" stroke-width="1"/><line x1="0" y1="240" x2="800" y2="240" stroke="#242427" stroke-width="1"/><line x1="0" y1="280" x2="800" y2="280" stroke="#242427" stroke-width="1"/><rect x="-7.0" y="-7.0" width="814" height="294" fill="none" stroke="#2e2e31" stroke-width="14"/><rect x="0" y="0" width="800" height="280" fill="none" stroke="#4a4a4d" stroke-width="2"/><rect x="-15" y="80" width="17" height="80" fill="#1a1a1c"/><rect x="-15" y="80" width="17" height="80" fill="none" stroke="#8a8a85" stroke-width="1" stroke-dasharray="3 4"/><text x="-18" y="74" fill="#bdbdb8" font-family="Patrick Hand, Comic Sans MS, sans-serif" font-size="15" text-anchor="start">→ Classroom</text><rect x="360" y="-15" width="80" height="17" fill="#1a1a1c"/><rect x="360" y="-15" width="80" height="17" fill="none" stroke="#8a8a85" stroke-width="1" stroke-dasharray="3 4"/><text x="400.0" y="-22" fill="#bdbdb8" font-family="Patrick Hand, Comic Sans MS, sans-serif" font-size="15" text-anchor="middle">→ Staff room (scary teacher's desk)</text><rect x="798" y="80" width="17" height="80" fill="#1a1a1c"/><rect x="798" y="80" width="17" height="80" fill="none" stroke="#8a8a85" stroke-width="1" stroke-dasharray="3 4"/><text x="818" y="74" fill="#bdbdb8" font-family="Patrick Hand, Comic Sans MS, sans-serif" font-size="15" text-anchor="end">→ Canteen</text><rect x="600" y="278" width="80" height="17" fill="#1a1a1c"/><rect x="600" y="278" width="80" height="17" fill="none" stroke="#8a8a85" stroke-width="1" stroke-dasharray="3 4"/><text x="640.0" y="312" fill="#bdbdb8" font-family="Patrick Hand, Comic Sans MS, sans-serif" font-size="15" text-anchor="middle">→ Town</text><g transform="translate(280.0,20.0) rotate(0) translate(-80.0,-20.0)"><rect x="0.0" y="4.0" width="160.0" height="32.0" rx="1.0" fill="#5a5a5d" stroke="#bdbdb8" stroke-width="2.00"/><line x1="40.0" y1="4.0" x2="40.0" y2="36.0" stroke="#3a3a3d" stroke-width="2.00" stroke-linecap="round"/><line x1="80.0" y1="4.0" x2="80.0" y2="36.0" stroke="#3a3a3d" stroke-width="2.00" stroke-linecap="round"/><line x1="120.0" y1="4.0" x2="120.0" y2="36.0" stroke="#3a3a3d" stroke-width="2.00" stroke-linecap="round"/><circle cx="32.0" cy="20.0" r="1.2" fill="#f2f2ef" stroke="#0b0b0c" stroke-width="1.00"/><circle cx="72.0" cy="20.0" r="1.2" fill="#f2f2ef" stroke="#0b0b0c" stroke-width="1.00"/><circle cx="112.0" cy="20.0" r="1.2" fill="#f2f2ef" stroke="#0b0b0c" stroke-width="1.00"/><circle cx="152.0" cy="20.0" r="1.2" fill="#f2f2ef" stroke="#0b0b0c" stroke-width="1.00"/></g><g transform="translate(400.0,260.0) rotate(180) translate(-80.0,-20.0)"><rect x="0.0" y="4.0" width="160.0" height="32.0" rx="1.0" fill="#5a5a5d" stroke="#bdbdb8" stroke-width="2.00"/><line x1="40.0" y1="4.0" x2="40.0" y2="36.0" stroke="#3a3a3d" stroke-width="2.00" stroke-linecap="round"/><line x1="80.0" y1="4.0" x2="80.0" y2="36.0" stroke="#3a3a3d" stroke-width="2.00" stroke-linecap="round"/><line x1="120.0" y1="4.0" x2="120.0" y2="36.0" stroke="#3a3a3d" stroke-width="2.00" stroke-linecap="round"/><circle cx="32.0" cy="20.0" r="1.2" fill="#f2f2ef" stroke="#0b0b0c" stroke-width="1.00"/><circle cx="72.0" cy="20.0" r="1.2" fill="#f2f2ef" stroke="#0b0b0c" stroke-width="1.00"/><circle cx="112.0" cy="20.0" r="1.2" fill="#f2f2ef" stroke="#0b0b0c" stroke-width="1.00"/><circle cx="152.0" cy="20.0" r="1.2" fill="#f2f2ef" stroke="#0b0b0c" stroke-width="1.00"/></g><g transform="translate(240.0,260.0) rotate(180) translate(-80.0,-20.0)"><rect x="0.0" y="4.0" width="160.0" height="32.0" rx="1.0" fill="#5a5a5d" stroke="#bdbdb8" stroke-width="2.00"/><line x1="40.0" y1="4.0" x2="40.0" y2="36.0" stroke="#3a3a3d" stroke-width="2.00" stroke-linecap="round"/><line x1="80.0" y1="4.0" x2="80.0" y2="36.0" stroke="#3a3a3d" stroke-width="2.00" stroke-linecap="round"/><line x1="120.0" y1="4.0" x2="120.0" y2="36.0" stroke="#3a3a3d" stroke-width="2.00" stroke-linecap="round"/><circle cx="32.0" cy="20.0" r="1.2" fill="#f2f2ef" stroke="#0b0b0c" stroke-width="1.00"/><circle cx="72.0" cy="20.0" r="1.2" fill="#f2f2ef" stroke="#0b0b0c" stroke-width="1.00"/><circle cx="112.0" cy="20.0" r="1.2" fill="#f2f2ef" stroke="#0b0b0c" stroke-width="1.00"/><circle cx="152.0" cy="20.0" r="1.2" fill="#f2f2ef" stroke="#0b0b0c" stroke-width="1.00"/></g><g transform="translate(500.0,20.0) rotate(0) translate(-60.0,-20.0)"><rect x="0.0" y="10.0" width="120.0" height="20.0" rx="2.0" fill="#8a8a85" stroke="#bdbdb8" stroke-width="2.00"/><rect x="9.6" y="12.8" width="24.0" height="12.0" rx="0.0" fill="#f2f2ef" stroke="#0b0b0c" stroke-width="1.00"/><rect x="43.2" y="12.0" width="24.0" height="12.8" rx="0.0" fill="#d8d8d2" stroke="#0b0b0c" stroke-width="1.00"/><rect x="79.2" y="13.6" width="26.4" height="11.2" rx="0.0" fill="#f2f2ef" stroke="#0b0b0c" stroke-width="1.00"/></g><g transform="translate(380.0,180.0) rotate(0) translate(-20.0,-20.0)"><rect x="8.0" y="8.0" width="24.0" height="24.0" rx="3.0" fill="#d8d8d2" stroke="#8a8a85" stroke-width="2.00"/><circle cx="20.0" cy="20.0" r="7.2" fill="#bdbdb8" stroke="#8a8a85" stroke-width="2.00"/></g><g transform="translate(780.0,20.0) rotate(0) translate(-20.0,-20.0)"><circle cx="20.0" cy="20.0" r="12.0" fill="#bdbdb8" stroke="#8a8a85" stroke-width="2.00"/><circle cx="20.0" cy="20.0" r="4.0" fill="#5a5a5d" stroke="#0b0b0c" stroke-width="1.00"/></g><g transform="translate(20.0,260.0) rotate(0) translate(-20.0,-20.0)"><circle cx="20.0" cy="20.0" r="12.0" fill="#5a5a5d" stroke="#bdbdb8" stroke-width="2.00"/><circle cx="20.0" cy="20.0" r="8.0" fill="#3a3a3d" stroke="#8a8a85" stroke-width="1.00"/></g><g transform="translate(20.0,20.0) rotate(0) translate(-20.0,-20.0)"><polyline points="0.0,0.0 40.0,40.0" fill="none" stroke="#8a8a85" stroke-width="1.00" stroke-linecap="round" stroke-linejoin="round"/><polyline points="0.0,0.0 40.0,18.0" fill="none" stroke="#8a8a85" stroke-width="1.00" stroke-linecap="round" stroke-linejoin="round"/><polyline points="0.0,0.0 18.0,40.0" fill="none" stroke="#8a8a85" stroke-width="1.00" stroke-linecap="round" stroke-linejoin="round"/><polyline points="12.0,0.0 12.8,6.0 6.0,12.0 0.0,12.0" fill="none" stroke="#8a8a85" stroke-width="1.00" stroke-linecap="round" stroke-linejoin="round"/><polyline points="24.0,0.0 24.8,12.0 12.0,24.8 0.0,24.0" fill="none" stroke="#8a8a85" stroke-width="1.00" stroke-linecap="round" stroke-linejoin="round"/><polyline points="36.0,12.0 34.0,22.0 22.0,34.0 12.0,36.0" fill="none" stroke="#8a8a85" stroke-width="1.00" stroke-linecap="round" stroke-linejoin="round"/></g><text x="280" y="36" fill="#0a0a0b" stroke="#0a0a0b" stroke-width="3.1" stroke-linejoin="round" font-family="Patrick Hand, Comic Sans MS, sans-serif" font-size="11" text-anchor="middle">Lockers</text><text x="280" y="36" fill="#f2f2ef" font-family="Patrick Hand, Comic Sans MS, sans-serif" font-size="11" text-anchor="middle">Lockers</text><text x="400" y="276" fill="#0a0a0b" stroke="#0a0a0b" stroke-width="3.1" stroke-linejoin="round" font-family="Patrick Hand, Comic Sans MS, sans-serif" font-size="11" text-anchor="middle">Lockers</text><text x="400" y="276" fill="#f2f2ef" font-family="Patrick Hand, Comic Sans MS, sans-serif" font-size="11" text-anchor="middle">Lockers</text><text x="240" y="276" fill="#0a0a0b" stroke="#0a0a0b" stroke-width="3.1" stroke-linejoin="round" font-family="Patrick Hand, Comic Sans MS, sans-serif" font-size="11" text-anchor="middle">Lockers</text><text x="240" y="276" fill="#f2f2ef" font-family="Patrick Hand, Comic Sans MS, sans-serif" font-size="11" text-anchor="middle">Lockers</text><text x="500" y="36" fill="#0a0a0b" stroke="#0a0a0b" stroke-width="3.1" stroke-linejoin="round" font-family="Patrick Hand, Comic Sans MS, sans-serif" font-size="11" text-anchor="middle">Notice board</text><text x="500" y="36" fill="#f2f2ef" font-family="Patrick Hand, Comic Sans MS, sans-serif" font-size="11" text-anchor="middle">Notice board</text><text x="380" y="196" fill="#0a0a0b" stroke="#0a0a0b" stroke-width="3.1" stroke-linejoin="round" font-family="Patrick Hand, Comic Sans MS, sans-serif" font-size="11" text-anchor="middle">Water cooler</text><text x="380" y="196" fill="#f2f2ef" font-family="Patrick Hand, Comic Sans MS, sans-serif" font-size="11" text-anchor="middle">Water cooler</text><text x="780" y="36" fill="#0a0a0b" stroke="#0a0a0b" stroke-width="3.1" stroke-linejoin="round" font-family="Patrick Hand, Comic Sans MS, sans-serif" font-size="11" text-anchor="middle">School bell</text><text x="780" y="36" fill="#f2f2ef" font-family="Patrick Hand, Comic Sans MS, sans-serif" font-size="11" text-anchor="middle">School bell</text><text x="20" y="276" fill="#0a0a0b" stroke="#0a0a0b" stroke-width="3.1" stroke-linejoin="round" font-family="Patrick Hand, Comic Sans MS, sans-serif" font-size="11" text-anchor="middle">Dustbin</text><text x="20" y="276" fill="#f2f2ef" font-family="Patrick Hand, Comic Sans MS, sans-serif" font-size="11" text-anchor="middle">Dustbin</text></g></svg>