<svg xmlns="http://www.w3.org/2000/svg" width="880" height="600" viewBox="0 0 880 600"><rect x="0" y="0" width="880" height="600" fill="#0a0a0b"/><g transform="translate(40,40)"><rect x="0" y="0" width="800" height="520" fill="#1a1a1c"/><line x1="0" y1="0" x2="0" y2="520" stroke="#242427" stroke-width="1"/><line x1="40" y1="0" x2="40" y2="520" stroke="#242427" stroke-width="1"/><line x1="80" y1="0" x2="80" y2="520" stroke="#242427" stroke-width="1"/><line x1="120" y1="0" x2="120" y2="520" stroke="#242427" stroke-width="1"/><line x1="160" y1="0" x2="160" y2="520" stroke="#242427" stroke-width="1"/><line x1="200" y1="0" x2="200" y2="520" stroke="#242427" stroke-width="1"/><line x1="240" y1="0" x2="240" y2="520" stroke="#242427" stroke-width="1"/><line x1="280" y1="0" x2="280" y2="520" stroke="#242427" stroke-width="1"/><line x1="320" y1="0" x2="320" y2="520" stroke="#242427" stroke-width="1"/><line x1="360" y1="0" x2="360" y2="520" stroke="#242427" stroke-width="1"/><line x1="400" y1="0" x2="400" y2="520" stroke="#242427" stroke-width="1"/><line x1="440" y1="0" x2="440" y2="520" stroke="#242427" stroke-width="1"/><line x1="480" y1="0" x2="480" y2="520" stroke="#242427" stroke-width="1"/><line x1="520" y1="0" x2="520" y2="520" stroke="#242427" stroke-width="1"/><line x1="560" y1="0" x2="560" y2="520" stroke="#242427" stroke-width="1"/><line x1="600" y1="0" x2="600" y2="520" stroke="#242427" stroke-width="1"/><line x1="640" y1="0" x2="640" y2="520" stroke="#242427" stroke-width="1"/><line x1="680" y1="0" x2="680" y2="520" stroke="#242427" stroke-width="1"/><line x1="720" y1="0" x2="720" y2="520" stroke="#242427" stroke-width="1"/><line x1="760" y1="0" x2="760" y2="520" stroke="#242427" stroke-width="1"/><line x1="800" y1="0" x2="800" y2="520" stroke="#242427" stroke-width="1"/><line x1="0" y1="0" x2="800" y2="0" stroke="#242427" stroke-width="1"/><line x1="0" y1="40" x2="800" y2="40" stroke="#242427" stroke-width="1"/><line x1="0" y1="80" x2="800" y2="80" stroke="#242427" stroke-width="1"/><line x1="0" y1="120" x2="800" y2="120" stroke="#242427" stroke-width="1"/><line x1="0" y1="160" x2="800" y2="160" stroke="#242427" stroke-width="1"/><line x1="0" y1="200" x2="800" y2="200" stroke="#242427" stroke-width="1"/><line x1="0" y1="240" x2="800" y2="240" stroke="#242427" stroke-width="1"/><line x1="0" y1="280" x2="800" y2="280" stroke="#242427" stroke-width="1"/><line x1="0" y1="320" x2="800" y2="320" stroke="#242427" stroke-width="1"/><line x1="0" y1="360" x2="800" y2="360" stroke="#242427" stroke-width="1"/><line x1="0" y1="400" x2="800" y2="400" stroke="#242427" stroke-width="1"/><line x1="0" y1="440" x2="800" y2="440" stroke="#242427" stroke-width="1"/><line x1="0" y1="480" x2="800" y2="480" stroke="#242427" stroke-width="1"/><line x1="0" y1="520" x2="800" y2="520" stroke="#242427" stroke-width="1"/><rect x="-6" y="-6" width="812" height="532" fill="none" stroke="#3a3a3d" stroke-width="6" stroke-dasharray="4 10"/><rect x="360" y="-15" width="80" height="17" fill="#1a1a1c"/><rect x="360" y="-15" width="80" height="17" fill="none" stroke="#8a8a85" stroke-width="1" stroke-dasharray="3 4"/><text x="400.0" y="-22" fill="#bdbdb8" font-family="Patrick Hand, Comic Sans MS, sans-serif" font-size="15" text-anchor="middle">→ Roof</text><rect x="-15" y="200" width="17" height="80" fill="#1a1a1c"/><rect x="-15" y="200" width="17" height="80" fill="none" stroke="#8a8a85" stroke-width="1" stroke-dasharray="3 4"/><text x="-18" y="194" fill="#bdbdb8" font-family="Patrick Hand, Comic Sans MS, sans-serif" font-size="15" text-anchor="start">→ Changing room</text><g transform="translate(400.0,260.0) rotate(0) translate(-160.0,-100.0)"><rect x="0.0" y="0.0" width="320.0" height="200.0" rx="6.0" fill="#bdbdb8" stroke="#f2f2ef" stroke-width="3.00"/><rect x="12.8" y="14.0" width="294.4" height="172.0" rx="4.0" fill="#8a8a85" stroke="#bdbdb8" stroke-width="2.00"/><polyline points="32.0,60.0 64.0,52.0 96.0,60.0 128.0,52.0 160.0,60.0 192.0,52.0 224.0,60.0 256.0,52.0 288.0,60.0" fill="none" stroke="#d8d8d2" stroke-width="1.00" stroke-linecap="round" stroke-linejoin="round"/><polyline points="32.0,110.0 64.0,102.0 96.0,110.0 128.0,102.0 160.0,110.0 192.0,102.0 224.0,110.0 256.0,102.0 288.0,110.0" fill="none" stroke="#d8d8d2" stroke-width="1.00" stroke-linecap="round" stroke-linejoin="round"/><polyline points="32.0,160.0 64.0,152.0 96.0,160.0 128.0,152.0 160.0,160.0 192.0,152.0 224.0,160.0 256.0,152.0 288.0,160.0" fill="none" stroke="#d8d8d2" stroke-width="1.00" stroke-linecap="round" stroke-linejoin="round"/></g><g transform="translate(760.0,120.0) rotate(0) translate(-40.0,-120.0)"><rect x="16.0" y="0.0" width="48.0" height="240.0" rx="8.0" fill="#bdbdb8" stroke="#8a8a85" stroke-width="2.00"/><rect x="25.6" y="4.8" width="28.8" height="230.4" rx="6.0" fill="#d8d8d2" stroke="none"/><rect x="8.0" y="0.0" width="64.0" height="24.0" rx="2.0" fill="#5a5a5d" stroke="#bdbdb8" stroke-width="2.00"/></g><g transform="translate(380.0,460.0) rotate(180) translate(-20.0,-60.0)"><rect x="4.0" y="0.0" width="32.0" height="120.0" rx="4.0" fill="#bdbdb8" stroke="#8a8a85" stroke-width="2.00"/><rect x="4.0" y="0.0" width="32.0" height="36.0" rx="4.0" fill="#f2f2ef" stroke="#8a8a85" stroke-width="1.00"/><line x1="4.8" y1="54.0" x2="35.2" y2="54.0" stroke="#8a8a85" stroke-width="1.00" stroke-linecap="round"/><line x1="4.8" y1="72.0" x2="35.2" y2="72.0" stroke="#8a8a85" stroke-width="1.00" stroke-linecap="round"/><line x1="4.8" y1="90.0" x2="35.2" y2="90.0" stroke="#8a8a85" stroke-width="1.00" stroke-linecap="round"/><line x1="4.8" y1="108.0" x2="35.2" y2="108.0" stroke="#8a8a85" stroke-width="1.00" stroke-linecap="round"/></g><g transform="translate(420.0,460.0) rotate(180) translate(-20.0,-60.0)"><rect x="4.0" y="0.0" width="32.0" height="120.0" rx="4.0" fill="#bdbdb8" stroke="#8a8a85" stroke-width="2.00"/><rect x="4.0" y="0.0" width="32.0" height="36.0" rx="4.0" fill="#f2f2ef" stroke="#8a8a85" stroke-width="1.00"/><line x1="4.8" y1="54.0" x2="35.2" y2="54.0" stroke="#8a8a85" stroke-width="1.00" stroke-linecap="round"/><line x1="4.8" y1="72.0" x2="35.2" y2="72.0" stroke="#8a8a85" stroke-width="1.00" stroke-linecap="round"/><line x1="4.8" y1="90.0" x2="35.2" y2="90.0" stroke="#8a8a85" stroke-width="1.00" stroke-linecap="round"/><line x1="4.8" y1="108.0" x2="35.2" y2="108.0" stroke="#8a8a85" stroke-width="1.00" stroke-linecap="round"/></g><g transform="translate(340.0,460.0) rotate(180) translate(-20.0,-60.0)"><rect x="4.0" y="0.0" width="32.0" height="120.0" rx="4.0" fill="#bdbdb8" stroke="#8a8a85" stroke-width="2.00"/><rect x="4.0" y="0.0" width="32.0" height="36.0" rx="4.0" fill="#f2f2ef" stroke="#8a8a85" stroke-width="1.00"/><line x1="4.8" y1="54.0" x2="35.2" y2="54.0" stroke="#8a8a85" stroke-width="1.00" stroke-linecap="round"/><line x1="4.8" y1="72.0" x2="35.2" y2="72.0" stroke="#8a8a85" stroke-width="1.00" stroke-linecap="round"/><line x1="4.8" y1="90.0" x2="35.2" y2="90.0" stroke="#8a8a85" stroke-width="1.00" stroke-linecap="round"/><line x1="4.8" y1="108.0" x2="35.2" y2="108.0" stroke="#8a8a85" stroke-width="1.00" stroke-linecap="round"/></g><g transform="translate(40.0,480.0) rotate(0) translate(-40.0,-40.0)"><circle cx="40.0" cy="40.0" r="36.0" fill="#5a5a5d" stroke="#bdbdb8" stroke-width="2.00"/><line x1="40.0" y1="40.0" x2="76.0" y2="40.0" stroke="#bdbdb8" stroke-width="1.00" stroke-linecap="round"/><line x1="40.0" y1="40.0" x2="4.0" y2="40.0" stroke="#bdbdb8" stroke-width="1.00" stroke-linecap="round"/><line x1="40.0" y1="40.0" x2="40.0" y2="76.0" stroke="#bdbdb8" stroke-width="1.00" stroke-linecap="round"/><line x1="40.0" y1="40.0" x2="40.0" y2="4.0" stroke="#bdbdb8" stroke-width="1.00" stroke-linecap="round"/><line x1="40.0" y1="40.0" x2="65.2" y2="65.2" stroke="#bdbdb8" stroke-width="1.00" stroke-linecap="round"/><line x1="40.0" y1="40.0" x2="14.8" y2="65.2" stroke="#bdbdb8" stroke-width="1.00" stroke-linecap="round"/><line x1="40.0" y1="40.0" x2="65.2" y2="14.8" stroke="#bdbdb8" stroke-width="1.00" stroke-linecap="round"/><line x1="40.0" y1="40.0" x2="14.8" y2="14.8" stroke="#bdbdb8" stroke-width="1.00" stroke-linecap="round"/><circle cx="40.0" cy="40.0" r="4.0" fill="#f2f2ef" stroke="#0b0b0c" stroke-width="1.00"/></g><g transform="translate(40.0,40.0) rotate(0) translate(-40.0,-40.0)"><rect x="12.0" y="12.0" width="56.0" height="56.0" rx="2.0" fill="#3a3a3d" stroke="#bdbdb8" stroke-width="2.00"/><rect x="24.0" y="24.0" width="32.0" height="32.0" rx="3.0" fill="#bdbdb8" stroke="#f2f2ef" stroke-width="2.00"/><line x1="12.0" y1="16.0" x2="68.0" y2="16.0" stroke="#5a5a5d" stroke-width="1.00" stroke-linecap="round"/><line x1="12.0" y1="64.0" x2="68.0" y2="64.0" stroke="#5a5a5d" stroke-width="1.00" stroke-linecap="round"/></g><g transform="translate(180.0,180.0) rotate(0) translate(-20.0,-20.0)"><rect x="8.0" y="12.0" width="24.0" height="16.0" rx="3.0" fill="#d8d8d2" stroke="#8a8a85" stroke-width="2.00"/><line x1="8.0" y1="17.2" x2="32.0" y2="17.2" stroke="#8a8a85" stroke-width="1.00" stroke-linecap="round"/><line x1="8.0" y1="22.4" x2="32.0" y2="22.4" stroke="#8a8a85" stroke-width="1.00" stroke-linecap="round"/></g><g transform="translate(20.0,320.0) rotate(-90) translate(-40.0,-20.0)"><line x1="4.0" y1="20.0" x2="76.0" y2="20.0" stroke="#bdbdb8" stroke-width="3.00" stroke-linecap="round"/><rect x="12.0" y="12.0" width="24.0" height="16.0" rx="2.0" fill="#d8d8d2" stroke="#8a8a85" stroke-width="1.00"/><rect x="44.0" y="12.0" width="24.0" height="16.0" rx="2.0" fill="#f2f2ef" stroke="#8a8a85" stroke-width="1.00"/></g><g transform="translate(260.0,260.0) rotate(0) translate(-20.0,-20.0)"><line x1="12.0" y1="4.0" x2="12.0" y2="36.0" stroke="#f2f2ef" stroke-width="3.00" stroke-linecap="round"/><line x1="28.0" y1="4.0" x2="28.0" y2="36.0" stroke="#f2f2ef" stroke-width="3.00" stroke-linecap="round"/><line x1="12.0" y1="12.0" x2="28.0" y2="12.0" stroke="#bdbdb8" stroke-width="2.00" stroke-linecap="round"/><line x1="12.0" y1="20.0" x2="28.0" y2="20.0" stroke="#bdbdb8" stroke-width="2.00" stroke-linecap="round"/><line x1="12.0" y1="28.0" x2="28.0" y2="28.0" stroke="#bdbdb8" stroke-width="2.00" stroke-linecap="round"/></g><g transform="translate(300.0,300.0) rotate(0) translate(-20.0,-20.0)"><circle cx="20.0" cy="20.0" r="14.4" fill="#d8d8d2" stroke="#f2f2ef" stroke-width="2.00"/><circle cx="20.0" cy="20.0" r="6.4" fill="#8a8a85" stroke="#bdbdb8" stroke-width="2.00"/><rect x="18.4" y="5.6" width="3.2" height="5.6" rx="0.0" fill="#5a5a5d" stroke="none"/><rect x="18.4" y="28.8" width="3.2" height="5.6" rx="0.0" fill="#5a5a5d" stroke="none"/></g><text x="400" y="356" fill="#0a0a0b" stroke="#0a0a0b" stroke-width="3.1" stroke-linejoin="round" font-family="Patrick Hand, Comic Sans MS, sans-serif" font-size="11" text-anchor="middle">Swimming pool</text><text x="400" y="356" fill="#f2f2ef" font-family="Patrick Hand, Comic Sans MS, sans-serif" font-size="11" text-anchor="middle">Swimming pool</text><text x="760" y="236" fill="#0a0a0b" stroke="#0a0a0b" stroke-width="3.1" stroke-linejoin="round" font-family="Patrick Hand, Comic Sans MS, sans-serif" font-size="11" text-anchor="middle">Slide (roof to pool)</text><text x="760" y="236" fill="#f2f2ef" font-family="Patrick Hand, Comic Sans MS, sans-serif" font-size="11" text-anchor="middle">Slide (roof to pool)</text><text x="380" y="516" fill="#0a0a0b" stroke="#0a0a0b" stroke-width="3.1" stroke-linejoin="round" font-family="Patrick Hand, Comic Sans MS, sans-serif" font-size="11" text-anchor="middle">Sun lounger</text><text x="380" y="516" fill="#f2f2ef" font-family="Patrick Hand, Comic Sans MS, sans-serif" font-size="11" text-anchor="middle">Sun lounger</text><text x="420" y="516" fill="#0a0a0b" stroke="#0a0a0b" stroke-width="3.1" stroke-linejoin="round" font-family="Patrick Hand, Comic Sans MS, sans-serif" font-size="11" text-anchor="middle">Sun lounger</text><text x="420" y="516" fill="#f2f2ef" font-family="Patrick Hand, Comic Sans MS, sans-serif" font-size="11" text-anchor="middle">Sun lounger</text><text x="340" y="516" fill="#0a0a0b" stroke="#0a0a0b" stroke-width="3.1" stroke-linejoin="round" font-family="Patrick Hand, Comic Sans MS, sans-serif" font-size="11" text-anchor="middle">Sun lounger</text><text x="340" y="516" fill="#f2f2ef" font-family="Patrick Hand, Comic Sans MS, sans-serif" font-size="11" text-anchor="middle">Sun lounger</text><text x="40" y="516" fill="#0a0a0b" stroke="#0a0a0b" stroke-width="3.1" stroke-linejoin="round" font-family="Patrick Hand, Comic Sans MS, sans-serif" font-size="11" text-anchor="middle">Umbrella</text><text x="40" y="516" fill="#f2f2ef" font-family="Patrick Hand, Comic Sans MS, sans-serif" font-size="11" text-anchor="middle">Umbrella</text><text x="40" y="76" fill="#0a0a0b" stroke="#0a0a0b" stroke-width="3.1" stroke-linejoin="round" font-family="Patrick Hand, Comic Sans MS, sans-serif" font-size="11" text-anchor="middle">Lifeguard chair</text><text x="40" y="76" fill="#f2f2ef" font-family="Patrick Hand, Comic Sans MS, sans-serif" font-size="11" text-anchor="middle">Lifeguard chair</text><text x="180" y="196" fill="#0a0a0b" stroke="#0a0a0b" stroke-width="3.1" stroke-linejoin="round" font-family="Patrick Hand, Comic Sans MS, sans-serif" font-size="11" text-anchor="middle">Towel stack</text><text x="180" y="196" fill="#f2f2ef" font-family="Patrick Hand, Comic Sans MS, sans-serif" font-size="11" text-anchor="middle">Towel stack</text><text x="20" y="356" fill="#0a0a0b" stroke="#0a0a0b" stroke-width="3.1" stroke-linejoin="round" font-family="Patrick Hand, Comic Sans MS, sans-serif" font-size="11" text-anchor="middle">Towel rack</text><text x="20" y="356" fill="#f2f2ef" font-family="Patrick Hand, Comic Sans MS, sans-serif" font-size="11" text-anchor="middle">Towel rack</text><text x="260" y="278" fill="#0a0a0b" stroke="#0a0a0b" stroke-width="3.1" stroke-linejoin="round" font-family="Patrick Hand, Comic Sans MS, sans-serif" font-size="11" text-anchor="middle">Pool ladder</text><text x="260" y="278" fill="#f2f2ef" font-family="Patrick Hand, Comic Sans MS, sans-serif" font-size="11" text-anchor="middle">Pool ladder</text><text x="300" y="318" fill="#0a0a0b" stroke="#0a0a0b" stroke-width="3.1" stroke-linejoin="round" font-family="Patrick Hand, Comic Sans MS, sans-serif" font-size="11" text-anchor="middle">Swim ring</text><text x="300" y="318" fill="#f2f2ef" font-family="Patrick Hand, Comic Sans MS, sans-serif" font-size="11" text-anchor="middle">Swim ring</text></g></svg>